<svg id="Layer_1" data-name="Layer 1" xmlns="http://www.w3.org/2000/svg" viewBox="0 0 1280.31 668.28"><defs><style>.cls-1{fill:#e19dd0;}.cls-2{fill:#f5deef;}.cls-3{fill:#672e58;}</style></defs><title>optics</title><path class="cls-1" d="M1280.5,1V577.5H774.8c-1.5,0-3-.08-4.49-.12a58.3,58.3,0,0,1-3.16-9.6c-1-3.81-2.62-7.42-3.71-11.23-1.63-5.67-4.31-11-6-16.72-1.55-5.26-4.19-10-6-15.17-2.09-5.93-5.4-11.41-7.92-17.21-2.24-5.13-5.3-9.83-7.36-15.08-1.19-3.05-2.43-5.86-2.39-9.23.09-6.78.66-13.52-1.63-20.24-1.4-4.12-2.89-8.15-5.35-11.61-2.1-2.95-3.09-6.32-4.75-9.4s-2.28-7.07-5.45-9.49a3.29,3.29,0,0,1-1.28-1.79c-.41-3-2-5.51-3.29-8.19-3.54-7.23-5.65-15-8.3-22.61a142.45,142.45,0,0,0-7.42-17c-3.78-7.52-9.19-14-14.54-20.48-.72-.87-2.08-1.19-2.16-2.58,1-.09,2-.26,3-.26,17.25,0,34.5.14,51.74-.14,3.73-.06,6.73,1.58,9.7,2.88a14.35,14.35,0,0,0,11.69.45,42.46,42.46,0,0,1,17.42-3.29q190.08.16,380.17.13c2.38,0,3.27-.38,3.27-3.08q-.18-45.5,0-91c0-2.4-.63-3.05-3-3.05q-296.57.09-593.13,0c-2.26,0-3,.54-2.95,2.89.1,20.66.06,41.32,0,62,0,1.16-.14,2.32-.21,3.48-4.2.5-8.42.88-12.6,1.54-8.26,1.3-16.58,2.2-24.88,3.22-4.1.5-8.34.72-12.26,1.88a76.3,76.3,0,0,1-13.15,2.24c-8.88,1-17.27,3-24.89,7.72-1.42.87-1.73.49-2.25-.8-1.42-3.55-2.14-7.3-3.37-10.9-1.13-3.34-3-6.42-6.63-7.05a23.46,23.46,0,0,0-11.61.42c-2.17.73-4.28,1.57-6.16-.78a9.86,9.86,0,0,1-1.62-3.82,73.28,73.28,0,0,1-2.39-16c-.39-7.86-2.9-15.45-3.66-23.29-.83-8.55-3.56-16.89-2.23-25.67.69-4.54-.11-9.2-1.17-13.58-.68-2.77-.61-5.8-2.11-8.34a8,8,0,0,1-1-6.22,7.76,7.76,0,0,0-1.86-7.84,7.79,7.79,0,0,1-1.73-4.58,1,1,0,0,1,.91-1.28c.68-.08.68.56.85,1,.41,1.05.25,2.36,1.4,3.09.4.25.7.78,1.28.53s.39-.68.45-1.08c.48-3.31-.5-6.53-1.57-9.44a22.51,22.51,0,0,1-1.75-6c-.13-1.55-.69-1.91-2.13-2a6.21,6.21,0,0,1-4.74-2.78c-.53-.76-1.12-2-.55-2.74.7-1,1.19.94,2.07.57a2.33,2.33,0,0,0,.47-.36,8.09,8.09,0,0,0-.53-.77c-2.3-2.87-5.61-4.45-8.44-6.64a17.93,17.93,0,0,0-6.19-3.26,11.3,11.3,0,0,1-5.59-3.45,25.86,25.86,0,0,1-3.69-3.94c-1-1.55-2.57-3.11-.85-5.38a3.2,3.2,0,0,0-.57-4,8.09,8.09,0,0,1-2,2.79c-1.07.93-2.33.6-2.09-.55.72-3.59-1.64-4.4-4.1-5.06-1.36-.37-2.61-1.39-4.08-1.08-2,.41-1.46-.34-.73-1.32s.37-1.45-.46-2.05c-1.31-.95-2.36-2.07-2.2-3.93a2.48,2.48,0,0,0-.69-1.55c-1.61-1.9-2.79-4.21-4.95-5.61s-3.87-3.7-5.91-5.45c-1.54-1.32-3.54-.94-4.85-2-2.29-1.85-5.08-1.76-7.63-2.36-4.49-1-9.16-.27-13.79-.89-5.52-.74-11.29-.09-16.9.44-6.1.58-12.13-.11-18.17-.35a77.45,77.45,0,0,1-10.35-1.07c-3-.52-6.31-1.22-9.34-.1a14.43,14.43,0,0,1-6.19.72c1.08-.67,2.5-.48,2.33-1.83a1.62,1.62,0,0,0-1.56-1.39c-1,0-2.4.15-2.68,1-1.1,3.32-3.92,2.92-6.21,2.78-7.22-.44-14.22,1.28-21.32,1.94a45.46,45.46,0,0,0-6.68.91c-3.2.82-6.45,1.18-9.65,1.86-3.35.7-7.09-.12-10,2.29-2.08,1.73-4.67,1.94-7,2.68-6.8,2.13-14,1.82-21,3.59a39.15,39.15,0,0,0-11.52,5c-.54.35-1.63.73-1.19,1.62s1.64.66,2.24.3a85.61,85.61,0,0,1,8.53-4.23c2.22-1,4.18-.62,6.47-.5-.25.53-.29.77-.39.8-4.42,1.51-7.83,4.7-11.76,7-3.48,2-5.67,5.64-9.26,7.6-1.86,1-3.53,2.31-5.49,3.27a18.81,18.81,0,0,0-6.09,4.32c-1.59,1.76-3.41,3-3.55,5.63a4.4,4.4,0,0,1-1.67,3.24,4.42,4.42,0,0,0-1.78,3.66,3.36,3.36,0,0,1-.75,2.07c-2.09,2.33-2.91,5.5-5.46,7.6-1.39,1.15-2.09,3.14-3.06,4.77a1.2,1.2,0,0,0,.1,1.61c.46.38,1-.08,1.34-.34a5.39,5.39,0,0,0,1.22-1.21c.4-.55.33-1.72,1.37-1.41s.72,1.37.71,2.17c0,2.81-1.49,5.21-2.39,7.75a45.84,45.84,0,0,1-4,8.48c-2.49,4.14-5.43,8.14-7.08,12.6a33,33,0,0,1-6.78,11.23c-2.12,2.33-4,5.09-3.77,8.57a4.9,4.9,0,0,1-1.86,4.39,4.23,4.23,0,0,0-1.28,3.12c-.41,3.54,2.22,4.75,4.58,6.09,2.15,1.2,4.85,1.67,6.64.16s3.22-1.2,5-.86c1,.18,2.12-.11,2.33,1.31s.64,2.74-.6,3.92c-1,1-2.11.74-3.23.33-.76-.28-1.5-1-2.33-.45a9.2,9.2,0,0,1-4.5,1.24c-.4,0-.91,0-1,.56a1,1,0,0,0,.36.83c1.81.95,3.41,2.58,5.66,2.31,2.54-.31,5.13-.06,7.65-.73a2.73,2.73,0,0,1,3,.58,2.29,2.29,0,0,1-.08,3c-2.33,3.15-2.21,7.33-4.54,10.45-.47.63-.2,1,.4,1.39a2.53,2.53,0,0,0,4-1.43,3.76,3.76,0,0,1,.74-1.8c2.6-2.72,5.05-5.62,8.38-7.53.69-.39,1.58-1.11,2.21-.3s0,1.75-.58,2.21c-1.8,1.34-2.13,3.27-2.46,5.25a3,3,0,0,1-.69,1.8c-1.59,1.65-.4,2.11,1.13,2.23,2.25.18,4.5.2,6.52-1.08a1.53,1.53,0,0,1,2,0c.64.65.3,1.32-.08,2a16.28,16.28,0,0,1-4.84,5.43c-3,2.23-2.81,8.34.47,9.56,2.65,1,5,2.57,7.56,3.56a5.86,5.86,0,0,1,2.92,2.53,37.63,37.63,0,0,0,11.19,11.89c3.4,2.32,7.12,3.06,11.85,2-2.77-1.13-5.08-1.38-7.17-2.55a29.74,29.74,0,0,1-9.95-8.36c-.68-.93-2.33-2.23-1.29-3.31s2.83-.48,4.25.13c.15.07.3.16.45.22,3.79,1.61,7.7,2.93,11.49,4.49,2.81,1.15,6.25,1.2,8.25,4.05.25.36.91.7,1,.42.42-2.22,3.55-1.25,4-3.48a1.73,1.73,0,0,1,1.26-1.09c3.47,0,3.82-3.12,4.78-5.13,1.56-3.25,4-5.63,6.21-8.63,1.22,3.35.07,6.27-1.24,8.6a26.41,26.41,0,0,1-14,12c-1,.38-3,.78-2.56,2.48.37,1.39,2,.64,3.09.69a3.5,3.5,0,0,0,1.94-.35c6.89-4.3,13.28-9.06,16.09-17.22.44-1.3.16-2.76.75-3.85,2.49-4.62,3.07-9.59,3.09-14.68a27.62,27.62,0,0,1,3.65-14.13c2.57-4.43,5.68-4.63,8.66-.39a37.44,37.44,0,0,0,4.95,5.84c2.94,2.76,6.79,4.44,9.15,7.9a5,5,0,0,1,1.16,3.41c-.44,4,1,5.84,5,6.24s7,2.93,10.26,5a1.28,1.28,0,0,1,.67,1.49c-.24.73-.91.57-1.48.6a15.72,15.72,0,0,1-6-1c-4.06-1.39-8.23,0-12.36,0-2.06,0-4.71,2.52-5,4.5-.35,2.33-1.69,3-3.82,2.94-1.75-.08-3.65-.19-5,1.08-2.55,2.41-5.53,2.6-8.77,2.39-2.46-.17-3.2.93-2.12,3.18s1.48,4.61,3.19,6.31,2.7,4.63,5.89,4.81a1.41,1.41,0,0,1,1.27,2,23.27,23.27,0,0,1-2.8,5.21,3.26,3.26,0,0,0-.55,3.81c.64,1.5-.35,4.63-1.71,5.14-2,.75-2.79,2.45-3.66,4.15q-2.33,4.56-4.74,9.07c-1.68,3.15-2.37,6.22-1.1,9.87,1.09,3.15,2.27,6.36,2.4,9.86.11,2.79-.15,5.66,1.43,8.37a31,31,0,0,1,3.58,8.11c.38,1.53,1.29,4,2.29,4.14,3.3.59,2.19,2.79,2.54,4.68a30.68,30.68,0,0,0,5,11.24,40.39,40.39,0,0,0,6.59,7.3,3.94,3.94,0,0,1,1.5,2.52,6.73,6.73,0,0,0,2.38,4.44,8.74,8.74,0,0,1,2.17,4.64,10.14,10.14,0,0,0,4.79,6.81c.72.44,1.57.75,2,1.48,1.53,2.81,4.95,3.05,7,5.2.31.33,1.09.28,1.66.31,3.71.16,7.87-2.46,10.93,1.76a.23.23,0,0,0,.23.07c2-.74,3.93-1.58,6.2-1,.29.07.89-.68,1.6.09a1.58,1.58,0,0,0,2.57-.39,2.83,2.83,0,0,1,2.83-1.12,39.6,39.6,0,0,0,4.49.06c1.62-.12,3.42-.08,4-2.2a.76.76,0,0,1,.95-.59,1.09,1.09,0,0,1,.75.91c.14.52-.19,1.19.56,1.62,1.92-1.47,4.43-2.19,5.3-5,.37-1.23,1.51-2.59,3.51-1.36,1.78,1.09,1.89,2.29,1.06,3.93-.3.59-.52,1.22-.78,1.82-2.52,5.81-5.08,11.61-7.57,17.43-2.1,4.93-4.22,9.86-6.17,14.85-1.76,4.54-3.52,9.06-6.24,13.12-2.48,3.7-4.09,7.84-6,11.83-1.43,3-2.44,6.23-4.26,9.08-1.55,2.44-4,4.49-3.6,7.86,0,.31-.4.68-.64,1-2.48,3.34-2.26,4.9,1,7.21,1.33,1,2.16,1.9.81,3.63-1,1.26-.84,3-.91,4.59a10.14,10.14,0,0,1-1,4.33c-2.32,4.4-5.59,8.4-5.82,13.69a1.53,1.53,0,0,1-.34.93c-1.57,1.7-1.52,3.79-1.42,5.86.16,3.15.42,6.28.64,9.42-2.24,0-4.49,0-6.74,0H.5V1C1.58,1,2.67,1,3.75,1h1273.5C1278.33,1,1279.42,1,1280.5,1Zm-640,81.38v0H749.75q183.86,0,367.72.06c2.47,0,3-.66,3-3-.1-18.84-.05-37.67-.05-56.5,0-3.28,0-3.28-3.31-3.28H713.59q-274.86,0-549.71,0c-3.79,0-3.26-.54-3.26,3.33,0,18.75,0,37.5-.06,56.24,0,2.59.62,3.25,3.23,3.25Q402.16,82.34,640.5,82.38Z" transform="translate(-0.35 -0.37)"/><path class="cls-2" d="M770.31,577.37c1.5,0,3,.12,4.49.12h505.7v88l-3,3H883c0-11.32-.14-22.64,0-34,0-2.73-.82-3.25-3.3-3.18-6,.18-12,.06-18,.06-16.23,0-32.46,0-48.69,0-2,0-2.55.57-2.45,2.5.15,3.07,0,6.16.07,9.24,0,1.43-.45,1.83-1.85,1.81-4.57-.08-9.15,0-13.73-.06-1.3,0-1.7.33-1.68,1.66.09,7.32.08,14.65.1,22h-108c0-11.74,0-23.49.06-35.23,0-1.33-.24-1.87-1.74-1.87q-43.35.06-86.7,0c-1.25,0-1.73.23-1.72,1.61.08,11.83.08,23.65.1,35.48H474c0-.91-.1-1.83-.1-2.74q0-16.12,0-32.24c0-1.31,0-2.14-1.79-2.13q-29.49.09-59,0c-1.22,0-1.74.2-1.73,1.6.08,11.83.08,23.66.1,35.49H3.5l-3-3v-88H263.32c2.25,0,4.5,0,6.74,0q19,0,38,.07h229q66.24,0,132.49,0Q719.94,577.49,770.31,577.37Z" transform="translate(-0.35 -0.37)"/><path class="cls-2" d="M632,668.5h-9c0-3.14,0-6.29,0-9.43.05-2.2-1.56-1.48-2.62-1.49s-2.67-.68-2.6,1.51c.11,3.13.12,6.27.17,9.41H600.5c0-10,.12-20,.09-30,0-1.58.35-2.12,2-2.11q37.83.07,75.66,0c1.75,0,2,.61,2,2.15-.06,9.07,0,18.14,0,27.21,0,.91.14,1.81.21,2.71H666c0-7.5,0-15,0-22.49,0-.84.34-1.85-1-2.17-3.18-.73-4.22,0-4.27,3.19-.09,7.16.26,14.32-.18,21.47h-9c0-3-.14-6,0-8.94.13-2.32-1.3-2-2.71-2s-2.81-.23-2.72,2c.13,3-.06,5.95-.11,8.93h-8.5a54.94,54.94,0,0,1-.17-9.16c0-2.23-1.43-1.8-2.68-1.78s-2.79-.5-2.72,1.75C632,662.37,632,665.44,632,668.5Z" transform="translate(-0.35 -0.37)"/><path class="cls-2" d="M841.5,668.5h-5a2.14,2.14,0,0,0-.18-1.68,17.33,17.33,0,0,0-13.79-11.7c-7-1.3-13,1-17.56,6.57-1.6,1.94-3.24,4-3,6.81h-4c0-5.74.1-11.48,0-17.22,0-1.54.45-2,2-2,4.41.09,8.82,0,13.23.06,1.61,0,2.22-.46,2.16-2.12-.11-3,.11-6-.08-9-.13-2.06.64-2.42,2.51-2.42,19.3.07,38.6,0,57.91,0,.33,0,.66,0,1,0,1.08-.11,1.46.34,1.45,1.42q-.12,15.6-.18,31.18h-2c.54-1.06-.16-1.94-.53-2.8-4.21-10.12-17.22-14.1-26.47-8C845.07,660.23,842.05,663.53,841.5,668.5Z" transform="translate(-0.35 -0.37)"/><path class="cls-2" d="M422.5,668.5H416c0-.91.11-1.82.11-2.73q0-13.86,0-27.72c0-1.3,0-2.12,1.77-2.11q24.72.1,49.43,0c1.46,0,1.79.48,1.78,1.85C469,648,469,658.26,469,668.5H450a3.74,3.74,0,0,1-.23-1.19c.46-2.56-.81-2.93-3-2.88-6.7.14-13.41.05-20.11.05C422.53,664.48,422.53,664.48,422.5,668.5Zm20.18-15.4c-5.9,0-11.81.07-17.71,0-1.86,0-2.23.68-2.18,2.32s0,2.63,2.17,2.61q17.58-.15,35.18,0c1.88,0,2.22-.71,2.16-2.34s.05-2.65-2.15-2.59C454.33,653.2,448.51,653.1,442.68,653.1Z" transform="translate(-0.35 -0.37)"/><path class="cls-3" d="M680.5,668.5c-.07-.9-.21-1.8-.21-2.71,0-9.07,0-18.14,0-27.21,0-1.54-.27-2.15-2-2.15q-37.83.11-75.66,0c-1.69,0-2,.53-2,2.11,0,10-.05,20-.09,30h-5c0-11.83,0-23.65-.1-35.48,0-1.38.47-1.62,1.72-1.61q43.35,0,86.7,0c1.5,0,1.75.54,1.74,1.87,0,11.74,0,23.49-.06,35.23Z" transform="translate(-0.35 -0.37)"/><path class="cls-3" d="M878,668.5q.07-15.59.18-31.18c0-1.08-.37-1.53-1.45-1.42-.33,0-.66,0-1,0-19.31,0-38.61,0-57.91,0-1.87,0-2.64.36-2.51,2.42.19,3,0,6,.08,9,.06,1.66-.55,2.15-2.16,2.12-4.41-.09-8.82,0-13.23-.06-1.52,0-2,.42-2,2,.06,5.74,0,11.48,0,17.22h-4.5c0-7.32,0-14.65-.1-22,0-1.33.38-1.68,1.68-1.66,4.58.08,9.16,0,13.73.06,1.4,0,1.89-.38,1.85-1.81-.1-3.08.08-6.17-.07-9.24-.1-1.93.43-2.51,2.45-2.5,16.23.09,32.46,0,48.69,0,6,0,12,.12,18-.06,2.48-.07,3.34.45,3.3,3.18-.15,11.31,0,22.63,0,34Z" transform="translate(-0.35 -0.37)"/><path class="cls-2" d="M1280.5,1c-1.08,0-2.17,0-3.25,0H3.75C2.67,1,1.58,1,.5,1,.61.85.25.48.75.49c.67,0,1.33,0,2,0q637.76,0,1275.5,0C1279,.53,1280,0,1280.5,1Z" transform="translate(-0.35 -0.37)"/><path class="cls-3" d="M469,668.5c0-10.24,0-20.47.08-30.7,0-1.37-.32-1.85-1.78-1.85q-24.71.07-49.43,0c-1.77,0-1.78.81-1.77,2.11q0,13.86,0,27.72c0,.91-.07,1.82-.11,2.73h-4.5c0-11.83,0-23.66-.1-35.49,0-1.4.51-1.61,1.73-1.6q29.49,0,59,0c1.77,0,1.79.82,1.79,2.13q0,16.11,0,32.24c0,.91.06,1.83.1,2.74Z" transform="translate(-0.35 -0.37)"/><path class="cls-3" d="M802,668.5c-.27-2.82,1.37-4.87,3-6.81,4.55-5.55,10.54-7.87,17.56-6.57a17.33,17.33,0,0,1,13.79,11.7,2.14,2.14,0,0,1,.18,1.68H832c-2.16-5.86-7.21-9.47-13-9.32a13.32,13.32,0,0,0-12.47,9.32Z" transform="translate(-0.35 -0.37)"/><path class="cls-3" d="M841.5,668.5c.55-5,3.57-8.27,7.5-10.84,9.25-6.06,22.26-2.08,26.47,8,.37.86,1.07,1.74.53,2.8h-4.5a13.38,13.38,0,0,0-25.5,0Z" transform="translate(-0.35 -0.37)"/><path class="cls-3" d="M660.5,668.5c.44-7.15.09-14.31.18-21.47.05-3.15,1.09-3.92,4.27-3.19,1.37.32,1,1.33,1,2.17,0,7.49,0,15,0,22.49Z" transform="translate(-0.35 -0.37)"/><path class="cls-3" d="M422.5,668.5c0-4,0-4,4.11-4,6.7,0,13.41.09,20.11-.05,2.24,0,3.51.32,3,2.88a3.74,3.74,0,0,0,.23,1.19Z" transform="translate(-0.35 -0.37)"/><path class="cls-3" d="M852.5,668.5h-5c0-.24-.12-.51,0-.7a12.57,12.57,0,0,1,22.55-.52c.19.36.71.83,0,1.22h-4.5C861.65,663.66,855.32,663.66,852.5,668.5Z" transform="translate(-0.35 -0.37)"/><path class="cls-3" d="M830,668.5h-4.5c-3.41-4.56-10.07-4.56-12.5,0h-5c-.4-.21-.27-.51-.12-.81a12.6,12.6,0,0,1,22-.83C830.14,667.32,830.86,667.89,830,668.5Z" transform="translate(-0.35 -0.37)"/><path class="cls-3" d="M646,668.5c0-3,.24-6,.11-8.93-.09-2.27,1.28-2.05,2.72-2s2.84-.29,2.71,2c-.18,3,0,6,0,8.94Z" transform="translate(-0.35 -0.37)"/><path class="cls-3" d="M632,668.5c0-3.06,0-6.13-.07-9.19-.07-2.25,1.48-1.74,2.72-1.75s2.7-.45,2.68,1.78a54.94,54.94,0,0,0,.17,9.16Z" transform="translate(-0.35 -0.37)"/><path class="cls-3" d="M618,668.5c0-3.14-.06-6.28-.17-9.41-.07-2.19,1.54-1.52,2.6-1.51s2.67-.71,2.62,1.49c-.06,3.14,0,6.29,0,9.43Z" transform="translate(-0.35 -0.37)"/><path class="cls-2" d="M830,668.5c.86-.61.14-1.18-.13-1.64a12.6,12.6,0,0,0-22,.83c-.15.3-.28.6.12.81h-1.5A13.32,13.32,0,0,1,819,659.18c5.82-.15,10.87,3.46,13,9.32Z" transform="translate(-0.35 -0.37)"/><path class="cls-2" d="M870,668.5c.73-.39.21-.86,0-1.22a12.57,12.57,0,0,0-22.55.52c-.09.19,0,.46,0,.7H846a13.38,13.38,0,0,1,25.5,0Z" transform="translate(-0.35 -0.37)"/><path class="cls-2" d="M852.5,668.5c2.82-4.84,9.15-4.84,13,0Z" transform="translate(-0.35 -0.37)"/><path class="cls-2" d="M813,668.5c2.43-4.56,9.09-4.56,12.5,0Z" transform="translate(-0.35 -0.37)"/><path class="cls-3" d="M.5,665.5l3,3Q-.34,669.34.5,665.5Z" transform="translate(-0.35 -0.37)"/><path class="cls-3" d="M1277.5,668.5l3-3Q1281.34,669.34,1277.5,668.5Z" transform="translate(-0.35 -0.37)"/><path class="cls-3" d="M770.31,577.37q-50.37.07-100.74.15-66.24,0-132.49,0h-229q-19,0-38-.07c-.22-3.14-.48-6.27-.64-9.42-.1-2.07-.15-4.16,1.42-5.86a1.53,1.53,0,0,0,.34-.93c.23-5.29,3.5-9.29,5.82-13.69a10.14,10.14,0,0,0,1-4.33c.07-1.58-.08-3.33.91-4.59,1.35-1.73.52-2.68-.81-3.63-3.24-2.31-3.46-3.87-1-7.21.24-.32.67-.69.64-1-.4-3.37,2.05-5.42,3.6-7.86,1.82-2.85,2.83-6.06,4.26-9.08,1.89-4,3.5-8.13,6-11.83,2.72-4.06,4.48-8.58,6.24-13.12,2-5,4.07-9.92,6.17-14.85,2.49-5.82,5.05-11.62,7.57-17.43.26-.6.48-1.23.78-1.82.83-1.64.72-2.84-1.06-3.93-2-1.23-3.14.13-3.51,1.36-.87,2.84-3.38,3.56-5.3,5-.75-.43-.42-1.1-.56-1.62a1.09,1.09,0,0,0-.75-.91.76.76,0,0,0-.95.59c-.59,2.12-2.39,2.08-4,2.2a39.6,39.6,0,0,1-4.49-.06,2.83,2.83,0,0,0-2.83,1.12,1.58,1.58,0,0,1-2.57.39c-.71-.77-1.31,0-1.6-.09-2.27-.56-4.21.28-6.2,1a.23.23,0,0,1-.23-.07c-3.06-4.22-7.22-1.6-10.93-1.76-.57,0-1.35,0-1.66-.31-2-2.15-5.44-2.39-7-5.2-.4-.73-1.25-1-2-1.48a10.14,10.14,0,0,1-4.79-6.81,8.74,8.74,0,0,0-2.17-4.64,6.73,6.73,0,0,1-2.38-4.44,3.94,3.94,0,0,0-1.5-2.52,40.39,40.39,0,0,1-6.59-7.3,30.68,30.68,0,0,1-5-11.24c-.35-1.89.76-4.09-2.54-4.68-1-.18-1.91-2.61-2.29-4.14a31,31,0,0,0-3.58-8.11c-1.58-2.71-1.32-5.58-1.43-8.37-.13-3.5-1.31-6.71-2.4-9.86-1.27-3.65-.58-6.72,1.1-9.87s3.19-6,4.74-9.07c.87-1.7,1.63-3.4,3.66-4.15,1.36-.51,2.35-3.64,1.71-5.14a3.26,3.26,0,0,1,.55-3.81,23.27,23.27,0,0,0,2.8-5.21,1.41,1.41,0,0,0-1.27-2c-3.19-.18-4.11-3-5.89-4.81s-2.17-4.18-3.19-6.31-.34-3.35,2.12-3.18c3.24.21,6.22,0,8.77-2.39,1.34-1.27,3.24-1.16,5-1.08,2.13.1,3.47-.61,3.82-2.94.3-2,3-4.5,5-4.5,4.13,0,8.3-1.39,12.36,0a15.72,15.72,0,0,0,6,1c.57,0,1.24.13,1.48-.6a1.28,1.28,0,0,0-.67-1.49c-3.22-2.06-6.24-4.57-10.26-5s-5.43-2.2-5-6.24a5,5,0,0,0-1.16-3.41c-2.36-3.46-6.21-5.14-9.15-7.9a37.44,37.44,0,0,1-4.95-5.84c-3-4.24-6.09-4-8.66.39a27.62,27.62,0,0,0-3.65,14.13c0,5.09-.6,10.06-3.09,14.68-.59,1.09-.31,2.55-.75,3.85-2.81,8.16-9.2,12.92-16.09,17.22a3.5,3.5,0,0,1-1.94.35c-1.08-.05-2.72.7-3.09-.69-.45-1.7,1.53-2.1,2.56-2.48a26.41,26.41,0,0,0,14-12c1.31-2.33,2.46-5.25,1.24-8.6-2.19,3-4.65,5.38-6.21,8.63-1,2-1.31,5.15-4.78,5.13a1.73,1.73,0,0,0-1.26,1.09c-.42,2.23-3.55,1.26-4,3.48-.06.28-.72-.06-1-.42-2-2.85-5.44-2.9-8.25-4.05-3.79-1.56-7.7-2.88-11.49-4.49-.15-.06-.3-.15-.45-.22-1.42-.61-3.26-1.16-4.25-.13s.61,2.38,1.29,3.31a29.74,29.74,0,0,0,9.95,8.36c2.09,1.17,4.4,1.42,7.17,2.55-4.73,1.05-8.45.31-11.85-2a37.63,37.63,0,0,1-11.19-11.89,5.86,5.86,0,0,0-2.92-2.53c-2.59-1-4.91-2.57-7.56-3.56-3.28-1.22-3.46-7.33-.47-9.56a16.28,16.28,0,0,0,4.84-5.43c.38-.71.72-1.38.08-2a1.53,1.53,0,0,0-2,0c-2,1.28-4.27,1.26-6.52,1.08-1.53-.12-2.72-.58-1.13-2.23a3,3,0,0,0,.69-1.8c.33-2,.66-3.91,2.46-5.25.62-.46,1.12-1.53.58-2.21s-1.52-.09-2.21.3c-3.33,1.91-5.78,4.81-8.38,7.53a3.76,3.76,0,0,0-.74,1.8,2.53,2.53,0,0,1-4,1.43c-.6-.37-.87-.76-.4-1.39,2.33-3.12,2.21-7.3,4.54-10.45a2.29,2.29,0,0,0,.08-3,2.73,2.73,0,0,0-3-.58c-2.52.67-5.11.42-7.65.73-2.25.27-3.85-1.36-5.66-2.31a1,1,0,0,1-.36-.83c.07-.52.58-.52,1-.56a9.2,9.2,0,0,0,4.5-1.24c.83-.56,1.57.17,2.33.45,1.12.41,2.21.65,3.23-.33,1.24-1.18.8-2.55.6-3.92s-1.38-1.13-2.33-1.31c-1.77-.34-3.21-.63-5,.86s-4.49,1-6.64-.16c-2.36-1.34-5-2.55-4.58-6.09a4.23,4.23,0,0,1,1.28-3.12,4.9,4.9,0,0,0,1.86-4.39c-.23-3.48,1.65-6.24,3.77-8.57A33,33,0,0,0,141,237.31c1.65-4.46,4.59-8.46,7.08-12.6a45.84,45.84,0,0,0,4-8.48c.9-2.54,2.35-4.94,2.39-7.75,0-.8.31-1.86-.71-2.17s-1,.86-1.37,1.41a5.39,5.39,0,0,1-1.22,1.21c-.38.26-.88.72-1.34.34a1.2,1.2,0,0,1-.1-1.61c1-1.63,1.67-3.62,3.06-4.77,2.55-2.1,3.37-5.27,5.46-7.6a3.36,3.36,0,0,0,.75-2.07,4.42,4.42,0,0,1,1.78-3.66,4.4,4.4,0,0,0,1.67-3.24c.14-2.62,2-3.87,3.55-5.63a18.81,18.81,0,0,1,6.09-4.32c2-1,3.63-2.26,5.49-3.27,3.59-2,5.78-5.56,9.26-7.6,3.93-2.3,7.34-5.49,11.76-7,.1,0,.14-.27.39-.8-2.29-.12-4.25-.5-6.47.5a85.61,85.61,0,0,0-8.53,4.23c-.6.36-1.79.61-2.24-.3s.65-1.27,1.19-1.62a39.15,39.15,0,0,1,11.52-5c6.92-1.77,14.16-1.46,21-3.59,2.38-.74,5-1,7-2.68,2.89-2.41,6.63-1.59,10-2.29,3.2-.68,6.45-1,9.65-1.86a45.46,45.46,0,0,1,6.68-.91c7.1-.66,14.1-2.38,21.32-1.94,2.29.14,5.11.54,6.21-2.78.28-.81,1.69-1,2.68-1a1.62,1.62,0,0,1,1.56,1.39c.17,1.35-1.25,1.16-2.33,1.83a14.43,14.43,0,0,0,6.19-.72c3-1.12,6.35-.42,9.34.1a77.45,77.45,0,0,0,10.35,1.07c6,.24,12.07.93,18.17.35,5.61-.53,11.38-1.18,16.9-.44,4.63.62,9.3-.15,13.79.89,2.55.6,5.34.51,7.63,2.36,1.31,1.06,3.31.68,4.85,2,2,1.75,3.63,4,5.91,5.45s3.34,3.71,4.95,5.61a2.48,2.48,0,0,1,.69,1.55c-.16,1.86.89,3,2.2,3.93.83.6,1.11,1.19.46,2.05s-1.24,1.73.73,1.32c1.47-.31,2.72.71,4.08,1.08,2.46.66,4.82,1.47,4.1,5.06-.24,1.15,1,1.48,2.09.55a8.09,8.09,0,0,0,2-2.79,3.2,3.2,0,0,1,.57,4c-1.72,2.27-.17,3.83.85,5.38a25.86,25.86,0,0,0,3.69,3.94,11.3,11.3,0,0,0,5.59,3.45,17.93,17.93,0,0,1,6.19,3.26c2.83,2.19,6.14,3.77,8.44,6.64a8.09,8.09,0,0,1,.53.77,2.33,2.33,0,0,1-.47.36c-.88.37-1.37-1.53-2.07-.57-.57.77,0,2,.55,2.74a6.21,6.21,0,0,0,4.74,2.78c1.44.07,2,.43,2.13,2a22.51,22.51,0,0,0,1.75,6c1.07,2.91,2.05,6.13,1.57,9.44-.06.4,0,.88-.45,1.08s-.88-.28-1.28-.53c-1.15-.73-1-2-1.4-3.09-.17-.45-.17-1.09-.85-1a1,1,0,0,0-.91,1.28,7.79,7.79,0,0,0,1.73,4.58,7.76,7.76,0,0,1,1.86,7.84,8,8,0,0,0,1,6.22c1.5,2.54,1.43,5.57,2.11,8.34,1.06,4.38,1.86,9,1.17,13.58-1.33,8.78,1.4,17.12,2.23,25.67.76,7.84,3.27,15.43,3.66,23.29a73.28,73.28,0,0,0,2.39,16,9.86,9.86,0,0,0,1.62,3.82c1.88,2.35,4,1.51,6.16.78a23.46,23.46,0,0,1,11.61-.42c3.63.63,5.5,3.71,6.63,7.05,1.23,3.6,1.95,7.35,3.37,10.9.52,1.29.83,1.67,2.25.8,7.62-4.7,16-6.71,24.89-7.72a76.3,76.3,0,0,0,13.15-2.24c3.92-1.16,8.16-1.38,12.26-1.88,8.3-1,16.62-1.92,24.88-3.22,4.18-.66,8.4-1,12.6-1.54.06,8.82.18,17.64.13,26.46,0,1.89.49,2.31,2.34,2.3,14.16-.07,28.31,0,42.47,0,25.8.05,51.61-.31,77.41.22.08,1.39,1.44,1.71,2.16,2.58,5.35,6.47,10.76,13,14.54,20.48a142.45,142.45,0,0,1,7.42,17c2.65,7.58,4.76,15.38,8.3,22.61,1.31,2.68,2.88,5.16,3.29,8.19a3.29,3.29,0,0,0,1.28,1.79c3.17,2.42,3.72,6.27,5.45,9.49s2.65,6.45,4.75,9.4c2.46,3.46,3.95,7.49,5.35,11.61,2.29,6.72,1.72,13.46,1.63,20.24,0,3.37,1.2,6.18,2.39,9.23,2.06,5.25,5.12,9.95,7.36,15.08,2.52,5.8,5.83,11.28,7.92,17.21,1.81,5.14,4.45,9.91,6,15.17,1.66,5.67,4.34,11,6,16.72,1.09,3.81,2.66,7.42,3.71,11.23A58.3,58.3,0,0,0,770.31,577.37Zm-532.83-333c0-3.15,0-3.14,2-5.57a2.4,2.4,0,0,0,.42-.9c.63-2.22,2.25-2.44,3.91-1.55s2.57.24,3.32-1a7.3,7.3,0,0,1,2.13-2c3.65-2.67,7.82-4.57,11.13-7.73a8.77,8.77,0,0,1,3.18-1.84c3.39-1.26,6.81-2.4,10.23-3.57a17.51,17.51,0,0,1,7-1.36,3.27,3.27,0,0,0,1.72-.17c3-1.67,5.68-.93,8.38.69A19.42,19.42,0,0,0,297,222a45.84,45.84,0,0,1,12.32,4.37,70.89,70.89,0,0,0,8.45,4.23c5.14,1.88,10.72,2.56,16.11,3.82,3.13.73,6.28,1.44,9.33,2.46,2.42.81,4.93.41,7.35,1a1.05,1.05,0,0,0,1.22-.68c.22-.58-.17-.85-.68-1.1-3.45-1.68-4.82-5.48-7.77-7.66s-4.57-5.3-7.17-7.7-5.14-4.34-7.59-6.65c-1-1-1.67-2.41-3-2.91-2.47-.9-1.68-2.1-.33-3.21,1.13-.93,1.85-2.09.81-3.17-3.24-3.35-5.08-8.2-10.79-9-2.5-.33-5.05-2.33-6.66-4.4a39.64,39.64,0,0,0-9-8,2,2,0,0,0-1.67-.23c-5.37,1.36-10.73,1.58-16-.26a3,3,0,0,0-2.39.09c-2,.93-4,1.65-6.15.25a1.11,1.11,0,0,0-1.39.21c-2.61,2.38-6.16,1.42-9.16,2.51a5.79,5.79,0,0,1-3.4.47c-3-.76-6-.24-9-.39a2.15,2.15,0,0,0-2.13,1.05c-1.48,2.81-3.14,2-4.91.39a10.47,10.47,0,0,0-1-.78c-1.73-1.26-3.76-.85-5.53-.47-1.55.32-.65,2.12-.79,3.26-.25,1.93-1.1,3.26-3.17,2.89-1.23-.22-1.46.21-2,1.13-1.08,1.86-1.73,4.22-4.39,4.67-.64.11-1.29.57-1.77-.21s-.14-1.22.5-1.68a1.83,1.83,0,0,0,.47-2.47c-.44-.95-1.41-.68-2.21-.73a3.23,3.23,0,0,0-1.86.59c-3.1,1.83-5.41,4.54-8,6.92-3.38,3.07-6.06,6.7-9.07,10.06-3.4,3.81-4.33,9-7,13.21-1.37,2.14-1,4.73-2.35,7-3.26,5.26-5.88,10.77-5.73,17.33.1,4-2.38,7.74-2,11.9a1.45,1.45,0,0,1-.31.67c-1,1.45-.44,3.08-.51,4.63,0,1.08.69,1.13,1.27.59,3-2.76,7.09-3.59,10.14-6.28,2.32-2,5.6-2.56,8.33-4a2.37,2.37,0,0,1,1.72,0c3.42,1.25,7.6-.88,10.6,2.34.16.18.64.1,1,.07a3.07,3.07,0,0,1,2.66,1.09c2.28,2.45,5.09,2.91,8.24,2.2a13.85,13.85,0,0,1,2.73-.22c3.14,0,5.09-1.27,6.06-4.24.59-1.78,1.56-3.42.31-5.62S236.35,246.91,237.48,244.42Zm33,52.85a1.62,1.62,0,0,0,1.55.92c2.42.17,3.8,1.91,5.23,3.5,1,1.08,1.21,2.37-.47,3s-1.48,1.44-.58,2.54c1.12,1.37,2,2.82,1.77,4.72a1.53,1.53,0,0,0,.72,1.51c.56.37.95,1,.59,1.47-1.61,2.06-1.46,4.83-3.59,6.88-3.07,3,.11,4.24,2.35,5.79,1,.72,1.75,1.05,2.83.66a1,1,0,0,0,.5-.53c.55-1.27,1.64-1.18,2.74-1.25,1.81-.1,3.76.58,5.42-.34,5.15-2.85,10.24-.44,15.37-.07,3.68.27,5.76,3.64,9.32,4.31a5.69,5.69,0,0,1,4.18,3.56c.87,3.14,4.07,2.38,5.84,3.93.16.14.76-.19,1.14-.34,1.67-.67,1.86-2.18,1.55-3.56-.7-3.08,4.34-2.27,3.51-5.36a2.74,2.74,0,0,1,1.3-.56,24,24,0,0,1,7.92.52c.59.17,1.23,1.43,1.81.24s2.09-2,1.18-3.52c-.24-.42-.73-.71-.54-1.29.29-.84,5-2.6,5.79-2.25.58.25.69,1.66,1.7.77.77-.67,0-1.37-.11-2.06-.18-1.46.09-3,1.28-3.75a2.36,2.36,0,0,1,3.27.88,1.83,1.83,0,0,0,2,.75,4.74,4.74,0,0,1,4.26.66c.29.18.59.41.88.17a1,1,0,0,0,.18-1.15,5.73,5.73,0,0,0-.68-1c-1.69-2.56-1.32-3.43.32-5.91,1.36-2.07,3-4.67,1.9-7.18-1-2.26.23-2.84,1.54-3.82,2.08-1.54,2.23-3.77.23-5.43-1.7-1.42-1.56-2.61.08-3.79a4.47,4.47,0,0,0,2.09-3.74c-.06-2.16,1.1-3.81,1.93-5.58a6.18,6.18,0,0,0-3.07-8.4c-1.6-.66-2-1.88-2.08-3.46-.21-4.65-1.17-9.27-4.26-12.77-3.9-4.41-9.81-4.2-15.11-5.24-.15,0-.32.07-.49.09-5.13.83-10.24,2-15.48.51-1.57-.45-2.64,1-2.06,2.63a1.25,1.25,0,0,1-.32,1.54c-2.06,1.92-4,4-7.27,3.67a47,47,0,0,0-4.75,0,2.71,2.71,0,0,0-2.29.71c-2.72,3-7.33,4.68-6.72,9.92a.44.44,0,0,1-.09.23c-2.58,4.9-4.76,10-8.82,14-5.32,5.26-11.7,8.44-18.78,10.61C275,296.2,272.56,295.9,270.45,297.27ZM396.71,277c2.82,1.41,4.74,3.3,7.78,3.06,2.55-.2,5.08,1,7.21,2.15,3.42,1.89,2,7.89-.16,10.37a1.22,1.22,0,0,1-1.82,0c-.93-.92-2.22-1.28-3.06-2.43-.67-.91-1.44-2.06-2.84-2.26-.48-.07-.94-.42-1.38.06a1.3,1.3,0,0,0-.2,1.39c1.25,3.86,1.25,3.86-3,3.79a1.32,1.32,0,0,0-.48.09c-1.55.54-1.83-.51-1.71-1.57.32-2.73-1.61-3.95-3.09-5.76a5.59,5.59,0,0,0-6.07-2.31c-2.05.37-3.14,1.27-2.08,3.05,1.3,2.16.93,4.48,1.59,6.63a17,17,0,0,1,.05,9.8c-.81,2.94-.74,5.8,2.13,7.78,2.26,1.56,3.06,4.07,4,6.41,1.13,3,3.73,4.22,6.56,2.81,1.46-.73,2.81-1.79,4.59-1.63.65.06,1.67.11,1.07,1.05-.91,1.42-.49,2.9-.66,4.36-.19,1.73-1.57,2.94-2.67,2.36-2.44-1.3-3.08-1-3.88,1.84-.46,1.65-1.09,3.11-3,3.66-1.09.32-1.32,1.25-1.52,2.33-.31,1.65.89,2.8,1.07,4.27.55,4.53,1.3,9,1.77,13.56.23,2.23.93,4.65-1.27,6.51-.84.7-.54,1.68,0,2.51,1.94,3.08,2,3.15-.75,5.36-1.13.92-1.47,1.67-.58,2.89a18,18,0,0,1,3.18,7.16,5.58,5.58,0,0,0,1.82,3.61,2.49,2.49,0,0,1,.06,3.91c-2.88,2.88-2.93,2.81,0,5.68.52.52.9,1.18,1.4,1.74a2,2,0,0,0,2.9.32c1.7-1.08,1.72-2.21.09-3.79-.51-.5-1.44-.82-1.05-1.74s1.31-.48,2-.55a4.37,4.37,0,0,1,1.25.05c1.93.37,3.79,3.69,2.56,4.67-2,1.59-1.68,4.91-4.53,5.8-.14,0-.23.61-.18.9.33,1.67,1.12,1.93,2.66,1.08,1.12-.61,3.41-1.2,3.23.5-.15,1.36,2.11,3.59-.84,4.71-.28.11.4,3.09.85,4.67.3,1.06,1.41.59,2.18.66a2.5,2.5,0,0,1,1.76.82c1,1.12,2.14,1.72,3.48.76s2.25-2.23,1.39-4c-.4-.85-.72-1.69.32-2.42,3.41-2.37,3-6.4,4.13-9.76.21-.62-.37-1-.91-1.31-2.07-1.28-2.13-3.1,0-4.23,1.65-.89,2-2.2,1.11-3.47-2.15-2.94-1.14-6.23-1.28-9.33-.3-7.1,1.74-14.16.71-21.29-.36-2.52.22-5.35-1.13-7.51a65.53,65.53,0,0,1-5.87-11.8C414,330.82,412,327,410.35,323c-.8-1.89-1.25-4.34,0-5.73,1.62-1.73,2.67-3.79,4.14-5.5,2.39-2.76,5.19-5.16,6.78-8.56.8-1.71,1.59-3.44,2.55-5.05a25.65,25.65,0,0,0,3.19-7.16c1.46-6.29-.23-12.58-.23-18.87,0-3.53-1.74-6.63-2.74-9.92-.9-2.94-3.24-4.89-4.52-7.6a9.64,9.64,0,0,0-7-5.13c-6.77-1.25-12.55,1.13-17.73,5.3-1.35,1.08-1.37,2.27,0,3.47,2.26,2,4.78,1.59,7.24.73a40,40,0,0,0,6-2.49c3.71-2,7.69,1.39,8.92,5.38,1.12,3.62,1.26,7.51,3,11,.69,1.38.49,2.94.43,4.43a1,1,0,0,1-.86,1.05c-.43.05-.52-.32-.67-.61-2-4.08-3.94-8.18-6.88-11.67-1.39-1.65-3.24-3.07-5.52-2.38-2.06.63-2.57,2.46-2.54,4.61C404.06,273.29,402,275.76,396.71,277Zm-126.32,15.6c3.17-.57,6.35-.66,9.15-1.75A40.22,40.22,0,0,0,295.48,280a17.63,17.63,0,0,0,4.07-11.17c0-1.08-.44-1.81-1.43-.76-2.63,2.82-6.43,2.32-9.63,3.07-2.78.65-4.39,1.63-5.62,4-.69,1.33-1.58,2.91-3.45,2.7-3.66-.42-7,.78-10.49,1.52-1.44.31-1.72,1.16-1.34,2.38.29.91.66,1.85-.4,2.42s-1.89-.2-2.56-1c-2.29-2.62-5.68-3.24-8.59-4.73a1.09,1.09,0,0,0-1.37.27c-.35.46-.15.93.16,1.37.82,1.16,1.07,2.66,1.76,3.78,1.23,1.95,1.27,4.67,3.71,5.87C263.53,291.4,267.08,291.71,270.39,292.62Zm-90.07.93c-3.76,2.81-4.75,6.58-4.18,11a4.19,4.19,0,0,0,2.87,3.85c3.1,1.13,6.15,2.43,9.18,3.72,2.64,1.13,5.33,2.15,7.95,3.32a1.59,1.59,0,0,0,2-.4c.67-.64.36-1.13.19-1.92-.83-3.74-3.13-6.29-6.11-8.4-.67-.47-1.15-1.52-2-1.31-1.11.27-.52,1.4-.62,2.15-.31,2.16-1,2.52-2.63,1.11a9.64,9.64,0,0,1-3.14-4.86A43.1,43.1,0,0,0,180.32,293.55ZM286.4,357.4a3.1,3.1,0,0,0-2.55-.79,12,12,0,0,1-8.63-.9,1.36,1.36,0,0,0-1.43,0q-3.66,2.19-7.3,4.4c-3.4,2.05-6.37,4.84-10.53,5.54-1,.17-2.75,1-2.74,2.07,0,1.48,1.77.47,2.66.89a5.86,5.86,0,0,1,1.23.82c.47.39,1,.73,1.58.43,2.72-1.44,5.67-2.38,8.45-3.65a88.11,88.11,0,0,1,12.71-4.69,3.89,3.89,0,0,0,1.43-.85c1.25-1,2.18-2.56,4.15-2.28C285.83,358.47,286.19,358.12,286.4,357.4ZM293,240.49c-1.77-1.92-3.44-3.79-5.83-4.29a25,25,0,0,0-13.58.44c-1.78.62-2.19,2.11-2.45,3.68a1.6,1.6,0,0,0,1.26,1.91c1.61.25,3.18,1,4.89.52,4.87-1.28,9.77-2.44,14.88-1.85C292.28,240.91,292.43,240.77,293,240.49ZM137,268.52v-.1c1.09,0,2.17.05,3.25,0s2.6,0,3-1.25c.54-1.67,1.41-3.71,0-5.2-1.21-1.26-.92-2-.15-3.2.47-.7,1.31-1.7.1-2.32-.94-.49-1.83-.26-2.77.77-2.55,2.84-4.56,6.33-8.45,7.72-.86.31-.91,1.06-.92,1.85,0,1.06.78,1.23,1.49,1.33C134.06,268.31,135.55,268.39,137,268.52ZM199.43,280c-1.41,0-3.22-.31-4.66,1-2.35,2.16-5.18,4-4.34,8,.17.79-.85,1.8.39,2.4s1.75-.36,2.57-.92c3.26-2.26,4.46-6.75,8.74-8a1.94,1.94,0,0,0,1.09-2c-.27-.88-1.29-.39-2-.48A17.18,17.18,0,0,0,199.43,280ZM300.69,238.2a26.31,26.31,0,0,0,5.27-3.69,2.29,2.29,0,0,0,.52-2.72c-.34-1-1.3-.86-2.12-.9-2.11-.09-3.65,1.46-5.58,2-1.29.33-2.74,1.22-2.28,2.75S298.08,238.34,300.69,238.2Zm71.59-81c-.62,4.35,1.45,7.65,1.65,11.24,0,.39.24.81.81.69s1.55.73,2-.29a2.83,2.83,0,0,0-.25-3.06c-.83-1-1.59-2-1.43-3.32C375.32,160.29,373.91,159.05,372.28,157.23ZM277.21,261.42c1.15.06,2.24.22,2.74-.63s-.3-1.88-.82-2.6a6.43,6.43,0,0,1-1.41-2.82.69.69,0,0,0-1.1-.54c-2.17,1.33-1.57,3.71-1.75,5.61C274.73,261.94,276.51,261.2,277.21,261.42Z" transform="translate(-0.35 -0.37)"/><path class="cls-3" d="M640.5,82.38q-238.35,0-476.71.06c-2.61,0-3.25-.66-3.23-3.25.11-18.74,0-37.49.06-56.24,0-3.87-.53-3.33,3.26-3.33q274.85,0,549.71,0h403.47c3.31,0,3.31,0,3.31,3.28,0,18.83,0,37.66.05,56.5,0,2.35-.48,3-3,3q-183.87-.11-367.72-.06H640.5ZM967,49c-2.42-2.12-5.22-2.24-7.05-.3a6.3,6.3,0,0,0,.06,8.19,4.4,4.4,0,0,0,6.71-.62c.44-.72,1.2-1.7.26-2.42s-1.79-.23-2.26.94a1.6,1.6,0,0,1-1.76,1.11,2,2,0,0,1-1.67-1.65,4.46,4.46,0,0,1,.34-3.62c.87-1.37,2.08-1.5,3-.26.6.79,1,1.62,2.06,1.16,1.39-.63.36-1.69.27-2.58a2.6,2.6,0,0,1,1.5,3,33.5,33.5,0,0,0,0,3.75,2.26,2.26,0,0,0,2.1,2.37,1.51,1.51,0,0,0,1.74-.66c.39-.74,0-1.07-.64-1.57-1.14-.92-1-5.13.17-6.18,2.07-1.92-1.85-2.32-1-4.06.24-.49-.8-.62-1.37-.59s-1,.18-.9.63C968.87,47.12,967.12,47.67,967,49Zm112.58.55a4.87,4.87,0,0,0-5.66-2,4.18,4.18,0,0,0-3.1,3.82c-.28,2.3-.25,4.52,1.92,6a4.39,4.39,0,0,0,6.13-1.16c.42-.71,1.31-1.67.23-2.41s-1.68,0-2.31,1c-1.06,1.69-2.49,1.44-3.29-.41a4.06,4.06,0,0,1,.19-3.61c.76-1.47,2.19-1.66,3.13-.3.55.78,1,1.31,2,1.09,1.25-.29.58-1.35.75-2.07,1.5.52.75,1.79.87,2.75.19,1.46-.28,3,.33,4.42a2.35,2.35,0,0,0,2.37,1.46,1.39,1.39,0,0,0,1.43-.8c.38-.9-.3-1.22-.87-1.75-1-.95-.63-4.92.45-6,2-1.93-1.77-2.28-1.09-4,.28-.71-.88-.71-1.52-.69a1.2,1.2,0,0,0-.66.23C1081,46.74,1078.57,47.64,1079.55,49.5Zm-877.38-1c-1.33,0-2.67.1-4,0-1.74-.16-1.82.83-1.83,2.15s.18,2.2,1.87,2.12c2.58-.12,5.17,0,7.75-.05a1.91,1.91,0,0,1,2.13,1.56c2.34,6.31,7.37,10,13.08,9.68,6.17-.33,10.77-4.12,12.63-10.58a3.43,3.43,0,0,1,3.55-2.8c1.82,0,2.64,1.05,3,2.71a13.57,13.57,0,0,0,3,6,13.13,13.13,0,0,0,22.36-4c.75-1.95,1.64-2.79,3.75-2.59s4.17-.05,6.24.07c1.81.09,2-.86,2-2.31s-.65-2-2.1-2c-2.07.08-4.17-.09-6.24.05-1.9.13-2.89-.32-3.57-2.37a12.19,12.19,0,0,0-10.58-8.68c-5.27-.68-9.86,1-12.7,5.67-1.46,2.38-2.48,4.48-5.76,3.27a2.15,2.15,0,0,0-1.46.18c-1.41.7-1.79-.06-2.32-1.22-2.22-4.87-6-7.69-11.42-8-5.72-.29-10.39,2.06-12.47,7.32-1.45,3.65-3.51,4.22-6.7,3.77A2.09,2.09,0,0,0,202.17,48.49Zm206.49,9.63c4,0,6.75-2.91,6.81-7.27s-2.52-7.08-6.81-7.07-6.73,2.74-6.74,7.17S404.46,58.13,408.66,58.12ZM807,58.1a6.3,6.3,0,0,0,1.57-.2c2.08-.63,3.55-1.83,3.46-4.24s-1.56-3.33-3.62-3.77c-.72-.16-1.46-.29-2.17-.51-1-.34-2.62-.3-2.21-2s1.89-1.34,3.11-1.24a1.93,1.93,0,0,1,1.75,1.54c.38,1.3,1.46,1.11,2.22.76s.48-1.29.21-2c-.88-2.31-4.54-3.5-7.34-2.34a4,4,0,0,0-2.68,4.3c.1,2,1.42,2.68,3,3.16,1.26.38,2.55.67,3.82,1a1.41,1.41,0,0,1,1.25,1.34,1.55,1.55,0,0,1-1.27,1.61c-1.92.65-3.71.65-4.52-1.57a1.46,1.46,0,0,0-2.15-1c-1.09.41-.59,1.42-.28,2.12C802.15,57.34,804,58.22,807,58.1Zm215.9-7.36a15.21,15.21,0,0,0,0,2.24,6,6,0,0,0,5.3,5.12c3,.28,5.39-1,6.39-3.63.26-.69,1-1.63-.2-2.09-.86-.32-1.78-.29-2.15,1a3.31,3.31,0,0,1-3.12,2.46c-2.13.14-3.56-1.73-3.62-4.48-.07-3.41,1.11-5.15,3.57-5.23a2.66,2.66,0,0,1,2.76,1.29c.59,1.25,1.69,1.73,2.58,1.08,1.17-.85,0-1.94-.52-2.73a4.72,4.72,0,0,0-3.1-1.89C1026.18,42.87,1022.87,45.71,1022.93,50.74Zm-111.45,0c0,1.74,0,3.49,0,5.23,0,1.06.18,1.73,1.48,1.7s1.28-.94,1.13-1.71c-.57-3,.59-4.2,3.6-3.56a1.36,1.36,0,0,0,.49,0A4.11,4.11,0,0,0,922.06,48,4,4,0,0,0,918.18,44c-6.51-.79-6.7-.63-6.7,5.76ZM832.88,54c-.51-1.46-.89-2.52-1.24-3.59-1-3.08-1.71-3.54-4.82-2.92a3,3,0,0,1-1.85.07c-1.09-.38-1.72.1-1.7,1.35,0,2.42,0,4.83,0,7.24,0,.8,0,1.47,1.15,1.48s1.19-.61,1.18-1.45c0-1.41,0-2.83,0-4.24.06-1.26.91-1.86,2.07-2.14,1.51-.37,1.3,1,1.6,1.69C830,53,830.44,54.6,831,56.15c.28.76.52,1.51,1.66,1.51a1.81,1.81,0,0,0,1.94-1.49c.77-2.19,1.68-4.33,2.43-6.52.23-.66,1.17-1.59-.11-2.1-1.07-.42-1.88,0-2.25,1.24C834.21,50.43,833.58,52,832.88,54Zm-416.52.52c0,1.74,0,3.48,0,5.22,0,.78-.25,1.76,1.06,1.82s1.38-.8,1.24-1.65c-.32-2,.44-2.31,2.22-1.85A3.31,3.31,0,0,0,424,56.85c1.64-1.65,2-5.33.71-7.45s-4.28-3-7.46-1.8c-2,.78-.52,3.1-.87,4.68A11.16,11.16,0,0,0,416.36,54.52Zm529-6.69c-2.19-.63-4.12-.85-5.63,1a6.5,6.5,0,0,0-.13,7.67c1.34,1.63,5.57,2.17,7.56,1a.83.83,0,0,0,.41-.82c0-3.92,0-7.83,0-11.75,0-.72-.42-1-1.13-1s-1.08.34-1.09,1.05ZM316.42,52.46V56c0,.85-.08,1.68,1.2,1.69S319,57,319,56c0-1.49,0-3,.07-4.48.11-1.75,1.67-1.78,2.8-1.86,1.59-.13.82,1.29.89,2,.13,1.32.05,2.66.05,4A2.11,2.11,0,0,0,324.68,58a1.47,1.47,0,0,0,1.75-.6c.34-.65.1-1.07-.55-1.61-1.31-1.08-1.05-4.93.22-6.23,1.86-1.89-1.85-2.24-1.13-4,.26-.63-.77-.62-1.33-.61a.8.8,0,0,0-.83,1c.16,1.5-.72,1.43-1.84,1.5C316.41,47.68,316.42,47.73,316.42,52.46ZM853.26,53.6c1.39,0,2.56.07,3.72,0,1-.08,2.42.62,2.92-.59A4.15,4.15,0,0,0,859,48.8a4,4,0,0,0-2.57-1.4c-4-.58-6.55,2.71-5.56,7.16A4.24,4.24,0,0,0,854.31,58a4.51,4.51,0,0,0,4.85-1.77c.47-.64,1.19-1.49.23-2.14-.69-.47-1.43-.2-2.13.58C855.51,56.63,854.51,56.37,853.26,53.6Zm-37.88,0h3.72c3.06,0,3.88-1.39,2.36-4.1a4,4,0,0,0-3.19-2.11c-3.91-.47-6.34,2.69-5.47,7A4.3,4.3,0,0,0,816.19,58a4.52,4.52,0,0,0,4.74-1.46c.57-.68,1.44-1.54.54-2.35-.74-.66-1.53-.25-2.27.6C817.53,56.7,816.35,56.32,815.38,53.6Zm-446-2.81c0,1.75,0,3.49,0,5.24,0,.9,0,1.63,1.28,1.61S372,56.87,372,56c0-1.33,0-2.66,0-4s.5-2.32,2-2.36c1.64-.05,1.46,1.23,1.47,2.3,0,1.33,0,2.66,0,4,0,.82-.13,1.68,1.17,1.72s1.4-.82,1.39-1.8c0-1.66.07-3.33,0-5-.17-2.57-1.34-3.78-3.82-3.41-2,.29-2.39-.26-2.18-2,.11-1-.4-1.56-1.49-1.48s-1,.88-1,1.62C369.41,47.3,369.42,49.05,369.42,50.79Zm695.77-3.42a4.8,4.8,0,0,0-1.31.12,3.07,3.07,0,0,0-2.43,2.24c-.1.48-.21,1.06.39,1.29,1.19.47,1.71-.43,2.44-1.13a2,2,0,0,1,2.33-.06,1,1,0,0,1,.31.86c-.28,1-1.21.58-1.88.71-.33.06-.67,0-1,.1-2.44.52-3.63,2.13-3.13,4.23.45,1.86,2.68,2.91,4.85,2.12a2.77,2.77,0,0,1,2.69,0c1,.53,2.77.11,2-1.24-1.14-1.85-.72-3.61-.81-5.41C1069.46,48.37,1068.54,47.4,1065.19,47.37ZM378.87,52.94c0,2.56,1.42,4.68,3.56,5.08s4-.05,5.2-2.06c.33-.56.81-1.25.14-1.78a1.36,1.36,0,0,0-2,.26c-.52.66-1,1.35-1.93,1.43a1.76,1.76,0,0,1-2.14-1.6c-.07-1.29,1.12-.57,1.7-.63a25.39,25.39,0,0,1,3.49,0c.78,0,1.19-.23,1.31-1.11a4.37,4.37,0,0,0-2.69-4.83C382.06,46.28,378.83,48.84,378.87,52.94Zm-29,.18a4.53,4.53,0,0,0,3.25,4.78,4.45,4.45,0,0,0,5.18-1.45c.49-.62,1.26-1.47.52-2.2s-1.67-.39-2.32.5a2.9,2.9,0,0,1-1.09,1,1.81,1.81,0,0,1-2.26-.5c-.32-.38-.74-.87-.42-1.32.44-.63,1.22-.25,1.84-.29,1.08-.06,2.16,0,3.25,0,.71,0,1.22-.1,1.39-1a4.41,4.41,0,0,0-3.56-5.17C352.3,46.87,349.86,49.16,349.87,53.12Zm588.24-.51c0-3.4-1.54-5.19-4.57-5.24s-5.08,2-5.1,5.41c0,3.16,1.84,5.29,4.66,5.33C936.22,58.15,938.08,56.11,938.11,52.61Zm107,0c0-3.39-1.56-5.16-4.61-5.2s-5,2-5.06,5.46c0,3.15,1.87,5.25,4.7,5.28C1043.26,58.14,1045.09,56.09,1045.11,52.57ZM345.2,47.39c-2.16-.19-3.71.67-4.09,2.79-.41,2.3,1.43,2.88,3.15,3.41a4,4,0,0,1,.95.22c.54.32,1.42.07,1.63.92a.84.84,0,0,1-.55,1,2.43,2.43,0,0,1-2.17,0,3,3,0,0,1-.93-1.13,1.26,1.26,0,0,0-1.92-.42c-.69.42-.42,1.21-.15,1.81,1,2.23,3,2.4,5.08,2.11a3.4,3.4,0,0,0,3.25-3.22c.12-1.81-1-2.69-2.63-3.05a8.4,8.4,0,0,1-1.67-.46c-.58-.27-1.77-.24-1.3-1.3.34-.78,1.35-.59,2-.32.48.19.75.86,1.21,1.17a1.41,1.41,0,0,0,1.64,0c.58-.41.41-1,.14-1.57A3.35,3.35,0,0,0,345.2,47.39Zm19.14,0c-2.57,0-4.22,1.1-4.3,3-.1,2.14,1.54,2.71,3.18,3.2a4,4,0,0,1,1,.21c.54.34,1.41.08,1.66.9a.84.84,0,0,1-.52,1,2.47,2.47,0,0,1-2.17,0,2.8,2.8,0,0,1-.94-1.12,1.26,1.26,0,0,0-1.91-.47c-.71.4-.43,1.18-.2,1.8.66,1.75,2.93,2.71,5.32,2.13,1.62-.39,2.9-1.32,3-3.17s-.94-2.72-2.6-3.08a8.5,8.5,0,0,1-1.66-.46c-.61-.26-1.76-.25-1.36-1.28.32-.82,1.3-.52,2-.39s.77.84,1.21,1.18a1.38,1.38,0,0,0,1.64,0c.59-.39.44-1,.18-1.56A3.3,3.3,0,0,0,364.34,47.38Zm83.82,0c-2.13-.2-3.67.68-4.05,2.79-.41,2.3,1.43,2.88,3.15,3.41a4,4,0,0,1,.95.22c.54.32,1.42.07,1.63.92a.84.84,0,0,1-.55,1,2.43,2.43,0,0,1-2.17,0,3,3,0,0,1-.93-1.13,1.26,1.26,0,0,0-1.92-.42c-.69.42-.42,1.21-.15,1.81,1,2.23,3,2.4,5.08,2.11a3.4,3.4,0,0,0,3.25-3.22c.12-1.81-1-2.69-2.63-3.05a8.4,8.4,0,0,1-1.67-.46c-.58-.27-1.77-.24-1.3-1.3.34-.78,1.35-.59,2-.32.48.19.75.86,1.21,1.17a1.41,1.41,0,0,0,1.64,0c.58-.41.41-1,.14-1.57A3.38,3.38,0,0,0,448.16,47.39ZM864.38,58.13c2.46,0,4.22-.51,4.69-2.85.52-2.57-1.27-3.3-3.25-3.81a6.26,6.26,0,0,1-1-.15c-.57-.24-1.52-.37-1.21-1.23s1.27-.55,2-.4c.33.07.63.5.86.82a1.41,1.41,0,0,0,2.16.3c.69-.6.09-1.42-.32-2-1.36-1.87-3.35-1.72-5.21-1.23a2.86,2.86,0,0,0-2.21,3.21c.16,2,1.75,2.4,3.29,2.8.24.07.55,0,.73.15.56.42,1.61.11,1.78,1.09.08.49-.36.77-.73.89a2.26,2.26,0,0,1-2.36-.23,3.64,3.64,0,0,1-.6-1c-.44-.74-1.14-.63-1.76-.41-.87.32-.62,1-.38,1.67A3.47,3.47,0,0,0,864.38,58.13Zm93.19-5.52c0-1.17,0-2.33,0-3.5,0-.9-.07-1.71-1.29-1.65s-1.29.82-1.3,1.73c0,1.58,0,3.17-.09,4.74a1.83,1.83,0,0,1-1.95,1.85c-1.08-.06-1.37-1-1.34-2,0-1.59,0-3.17,0-4.75,0-.79,0-1.53-1.12-1.55S949,48,949,49c0,1.91-.1,3.83.06,5.73a3.29,3.29,0,0,0,3.59,3.35c4.78,0,4.93-.18,4.93-5Zm19.17,5.52c2,0,3.85-.48,4.33-2.82.53-2.57-1.24-3.32-3.22-3.83a7.44,7.44,0,0,1-1-.15c-.58-.24-1.53-.36-1.25-1.22s1.26-.57,1.94-.43c.33.06.64.48.87.81a1.41,1.41,0,0,0,2.16.33c.71-.59.11-1.42-.3-2C979,47,977,47.11,975.09,47.58a2.88,2.88,0,0,0-2.23,3.2c.15,2,1.73,2.41,3.27,2.82.24.06.55,0,.73.14.57.42,1.61.13,1.8,1.08.1.48-.34.77-.71.9a2.28,2.28,0,0,1-2.36-.21,3.27,3.27,0,0,1-.61-1c-.42-.76-1.13-.65-1.75-.44-.88.3-.64,1-.41,1.66C973.49,57.54,974.92,58.14,976.74,58.13ZM302.24,43.94c-1.17,0-2.33,0-3.49,0-1,0-2.21-.26-2.22,1.26s1.25,1.38,2.2,1.26c1.83-.22,2.25.58,2.16,2.26-.13,2.49,0,5,0,7.48,0,.86.17,1.42,1.22,1.43s1.53-.31,1.51-1.42c-.05-2.16.07-4.32,0-6.48s-.06-3.87,2.89-3.27a1.15,1.15,0,0,0,1.49-1.22c0-.93-.54-1.32-1.44-1.31C305.07,44,303.65,44,302.24,43.94Zm3.57,8.93c0,3.29,1.74,5.24,4.64,5.24,3.09,0,5-2.1,5-5.57,0-3.26-1.85-5.2-5-5.17C307.49,47.41,305.8,49.4,305.81,52.87Zm25.84-5.5c-3,0-4.81,1.91-4.84,5.31s1.7,5.45,4.7,5.43,5-2.17,4.95-5.62C336.45,49.31,334.65,47.39,331.65,47.37Zm514.77,0a4.65,4.65,0,0,0-4.92,4.39c-.41,2.89,1,5.55,3.34,6.23A4.46,4.46,0,0,0,850,55.61c.23-.61.86-1.45-.17-1.93a1.31,1.31,0,0,0-2,.75c-.3.8-.83,1.51-1.81,1.42a2.09,2.09,0,0,1-1.86-2c-.21-1.49-.31-3.13,1.2-4a1.64,1.64,0,0,1,2.56,1.05c.34,1,1.18.87,1.86.59,1-.42.55-1.29.28-1.92A3.33,3.33,0,0,0,846.42,47.37Zm-411.6,5.15c-.05,2.83,1.19,5,3.33,5.47a4.27,4.27,0,0,0,4.93-2c.44-.75,1.1-1.72-.05-2.36-.87-.48-1.59,0-2,.89s-1.12,1.57-2.13,1.26c-1.19-.37-1.47-1.46-1.47-2.6,0-1.33-.13-2.78,1.33-3.47a1.69,1.69,0,0,1,2.4,1.08,1.31,1.31,0,0,0,1.89.64c.91-.43.55-1.27.27-2a3.31,3.31,0,0,0-2.82-2.12C437,46.93,434.9,48.85,434.82,52.52Zm611.46,0c0,1.25,0,2.5,0,3.75,0,.73.12,1.28,1,1.31s1.3-.45,1.28-1.36c0-1.41,0-2.83,0-4.24s.58-2.32,2-2.38,1.58,1.24,1.63,2.29c.09,1.5,0,3,0,4.49,0,.83.3,1.2,1.16,1.21s1.18-.39,1.17-1.21c0-1.17,0-2.33,0-3.5,0-5.35-.17-4.93-5.6-5.29-3.47-.24-2.68,1.42-2.73,3.19C1046.26,51.4,1046.28,52,1046.28,52.56Zm14.33,4.06a4.25,4.25,0,0,0-.36-.67,5.07,5.07,0,0,1,0-6.5c1.41-1.89-1.94-2.34-1.37-4.15.14-.44-.92-.44-1.49-.44-.16,0-.44,0-.46.12-.41,1.42-2.22,3-1.45,4,1.31,1.84.64,3.62.85,5.41a5,5,0,0,0,.55,2.63,2.43,2.43,0,0,0,2.63,1A1.27,1.27,0,0,0,1060.61,56.62Zm-633.92-4a31.2,31.2,0,0,0,.27,3.94A2,2,0,0,0,429,58a1.32,1.32,0,0,0,1.45-.72c.38-.93-.29-1.22-.94-1.68s-.75-5.53-.07-5.87c1.78-.91,1.75-1.53,0-2.4-.93-.45.4-2.54-1.65-2.44-1.87.08-.36,2.14-1.62,2.57-.92.31-1.12,1.45-.55,1.75C427.55,50.19,426.45,51.81,426.69,52.63Zm-33.27-1.86c0,1.83,0,3.65,0,5.48,0,.9.25,1.41,1.26,1.38.8,0,1.28-.29,1.28-1.14q0-5.6,0-11.21A1.19,1.19,0,0,0,394.53,44c-1.08,0-1.11.8-1.11,1.58Zm-4-.15c0,1.91,0,3.82,0,5.73,0,.77.19,1.26,1.1,1.28s1.44-.24,1.44-1.24c0-3.65,0-7.3,0-11,0-.83-.3-1.46-1.28-1.47-1.21,0-1.27.79-1.27,1.68C389.42,47.3,389.42,49,389.42,50.62Zm533.86,1.86c0,1.25,0,2.49,0,3.74,0,.85.14,1.42,1.21,1.41s1.12-.72,1.11-1.5c0-.34,0-.67,0-1,.11-2.2-.8-4.84,2.58-5.58.66-.15.4-1,.35-1.55s-.49-.56-.92-.61c-3.87-.47-4.34-.06-4.34,3.85Zm-585.93.14h0c0,1.33,0,2.65,0,4,0,.89.55,1.09,1.3,1.08s1.37-.16,1.38-1c0-2.65,0-5.29,0-7.93,0-.89-.59-1.31-1.48-1.3s-1.21.66-1.2,1.5C337.36,50.15,337.35,51.38,337.35,52.62Zm96.7.16c0-1.32,0-2.64,0-4a1.3,1.3,0,0,0-1.38-1.42c-1,0-1.31.51-1.31,1.4,0,2.56,0,5.12,0,7.68,0,.83.36,1.19,1.19,1.19s1.49-.16,1.5-1.17C434.07,55.26,434.06,54,434.05,52.78Zm406.55-.23V48.83c0-.75-.2-1.29-1.08-1.34-1-.06-1.24.57-1.24,1.41q0,3.72,0,7.44c0,.75.16,1.26,1.08,1.28s1.27-.46,1.25-1.36C840.58,55,840.6,53.79,840.6,52.55ZM432.49,43.88c-.77-.08-1.12.44-1.14,1.34s.15,1.44,1.19,1.45,1.56-.35,1.52-1.43C434,44.35,433.62,43.86,432.49,43.88Zm-92.43,1.37a1.24,1.24,0,0,0-1.36-1.38c-1.14,0-1.35.63-1.35,1.59s.57,1.23,1.43,1.21S340.09,46.14,340.06,45.25Zm500.59.08c.05-.91-.26-1.46-1.26-1.44s-1.16.71-1.17,1.52.28,1.23,1.15,1.25S840.73,46.23,840.65,45.33Z" transform="translate(-0.35 -0.37)"/><path class="cls-2" d="M679.63,359.78c-25.8-.53-51.61-.17-77.41-.22-14.16,0-28.31-.07-42.47,0-1.85,0-2.35-.41-2.34-2.3.05-8.82-.07-17.64-.13-26.46.07-1.16.2-2.32.21-3.48,0-20.66,0-41.32,0-62,0-2.35.69-2.89,2.95-2.89q296.57.07,593.13,0c2.41,0,3,.65,3,3.05q-.12,45.5,0,91c0,2.7-.89,3.08-3.27,3.08q-190.08-.07-380.17-.13a42.46,42.46,0,0,0-17.42,3.29,14.35,14.35,0,0,1-11.69-.45c-3-1.3-6-2.94-9.7-2.88-17.24.28-34.49.12-51.74.14C681.6,359.52,680.62,359.69,679.63,359.78Zm239.51-49.3c0-.91.06-1.83,0-2.74-.45-6.47-4.88-10.83-11.4-11.27-6.8-.47-11.88,3.15-13.15,9.54a26.15,26.15,0,0,0-.3,5.46c.15,8.74,5.88,14.47,16.14,12.33C916.16,322.6,919.35,317.5,919.14,310.48Zm28-.12c0-.83,0-1.66,0-2.49-.4-6.48-4.77-10.89-11.28-11.4-6.82-.53-11.9,3-13.24,9.42a24.74,24.74,0,0,0-.34,5.45c.09,8.48,5.35,14.41,15.79,12.58C944,322.88,947.38,317.58,947.15,310.36Zm-246.57.07a21.09,21.09,0,0,0,0-2.25c-.49-4.84-2.33-9-7.17-10.74-5.13-1.87-10.2-1.62-14.34,2.52-3.34,3.33-3.67,7.68-3.48,12.08.29,6.45,4.28,11.29,9.84,12,7.29,1,12.28-1.71,14.37-7.76A15.46,15.46,0,0,0,700.58,310.43Zm9.07-4.06.44-.12c2.72,4.7,5.68,9.28,8.06,14.15,1.4,2.87,3.29,3.48,6.07,3.21,1-.1,1.46-.25,1.45-1.39,0-7.82,0-15.65,0-23.47,0-.48.16-1.25-.4-1.3a11.66,11.66,0,0,0-4.21,0c-1.17.32-.54,1.72-.55,2.62-.07,4.67,0,9.34,0,14a123.52,123.52,0,0,1-8.14-13.56c-1.31-2.58-2.88-3.57-5.77-3.31-1.77.16-2.15.61-2.13,2.29.09,7.33.16,14.65,0,22-.06,2.57,1.43,2,2.83,2.06,1.56.11,2.58.07,2.5-2.12C709.52,316.44,709.65,311.4,709.65,306.37Zm-59.19,4.13c0,3.74,0,7.48,0,11.23,0,1.34.25,1.92,1.76,1.87,3.32-.1,6.65,0,10-.05a9.59,9.59,0,0,0,9.22-6.4,19,19,0,0,0,.9-11.26c-1.24-5.94-4.44-8.49-10.45-8.53-3.24,0-6.49.05-9.73,0-1.32,0-1.7.39-1.67,1.69C650.51,302.84,650.46,306.67,650.46,310.5Zm356.4,13.61h1.24c5.35-.16,8.86-3.1,9.32-7.81.4-4.2-1.81-6.55-7.43-8a66,66,0,0,1-6.67-1.9c-1.94-.72-2.28-2.31-1-3.72,1.91-2.18,6.88-1.67,8.34.85.81,1.42,4.11,2.61,5.34,1.59,1.49-1.23.08-2.69-.39-4a5.56,5.56,0,0,0-2.45-2.74,12.52,12.52,0,0,0-9.3-1.71c-4.69.88-7.28,3.39-7.44,7.34-.21,4.79,1.33,6.61,6.6,8.07,2.39.66,4.92.83,7.18,1.94,1.84.9,2.25,2.34,1.13,3.79-1.85,2.39-8.17,2.2-9.19-.58-.87-2.38-2.38-1.89-4-2.07-2.33-.26-2.45.88-1.92,2.63a7.79,7.79,0,0,0,3.53,4.64A12.6,12.6,0,0,0,1006.86,324.11Zm-180.06,0c.42,0,.84,0,1.25,0,5.37-.15,8.87-3.05,9.36-7.76.43-4.21-1.8-6.61-7.36-8-2.25-.57-4.47-1.22-6.7-1.86a2.16,2.16,0,0,1-1.72-1.9,2.45,2.45,0,0,1,1.37-2.47c2.36-1.45,7.18-.87,7.89,2.09.11.48.16,1.05.83,1,1.56,0,3.58.74,4.54-.33s-.15-2.82-.89-4.11a5.61,5.61,0,0,0-1.41-1.72,12.28,12.28,0,0,0-10.33-2.3c-4.51.89-7.08,3.39-7.25,7.24-.22,4.78,1.34,6.68,6.55,8.12,2.39.66,4.91.83,7.18,1.93,1.88.9,2.31,2.3,1.21,3.77-1.8,2.41-8.14,2.28-9.19-.49-.94-2.45-2.53-2-4.25-2.12-2-.21-2.24.82-1.8,2.34a8.06,8.06,0,0,0,1,2.28C819.33,323.42,822.93,324.11,826.8,324.12Zm130-16.5c0-3.26-.14-5.81,0-8.34.2-2.7-1.67-1.84-3-1.91s-2.74-.52-2.69,1.91c.17,6.9.06,13.81.06,20.71,0,3.7,0,3.63,3.72,3.62,1.41,0,1.93-.41,1.86-1.83-.09-1.91.06-3.83,0-5.74a3.32,3.32,0,0,1,2.06-3.15c1.12-.58,1.38,1,1.92,1.72a27.32,27.32,0,0,1,3.44,4.89c1.75,3.55,4.46,4.79,8.23,4.07h.25c.45-.09,1.06.25,1.31-.35s-.31-.9-.58-1.27c-2.64-3.63-5.3-7.24-8-10.87-2.15-2.94-2.17-3,.35-5.45s5.31-5.11,8-7.66l-.41-.62a24.67,24.67,0,0,1-3.65,0c-2.4-.34-4,.61-5.56,2.42C962.05,302.28,959.66,304.61,956.83,307.62Zm64.54,2.87c0,3.42.13,6.84,0,10.25-.11,2.15.34,3,2.76,2.9a140.91,140.91,0,0,1,14.24,0c2.57.14,3-.78,2.9-3.05,0-1.8-.57-2.22-2.27-2.13-2.57.15-5.16,0-7.74,0-4.51,0-4.44,0-4.43-4.44,0-1.53.45-2,2-2,3,.11,6-.1,9,.07,2.13.13,1.72-1.21,1.72-2.39s.45-2.53-1.69-2.42c-3.07.16-6.17-.08-9.24.09-2.14.12-1.82-1.23-1.7-2.41s-.93-3,1.68-2.94c3.5.12,7-.06,10.5.07,2,.07,1.57-1.26,1.51-2.31s.75-2.58-1.52-2.54c-5.33.1-10.67.07-16,0-1.31,0-1.71.35-1.68,1.68C1021.43,302.83,1021.37,306.66,1021.37,310.49Zm33.94,13.08h6.5c3.64,0,3.59,0,3.37-3.7-.06-1.08-.35-1.42-1.44-1.39-2.83.07-5.67,0-8.5,0-4.52,0-4.46,0-4.45-4.42,0-1.5.38-2.05,2-2,3,.12,6-.11,9,.08,2.13.13,1.78-1.17,1.75-2.38s.51-2.54-1.66-2.43c-3.08.15-6.17-.1-9.25.08-2.13.13-1.86-1.19-1.71-2.38s-1-3,1.65-3c3.41.1,6.83-.12,10.24.07,2,.11,1.89-1,1.82-2.29s.55-2.66-1.78-2.59c-5.24.16-10.5.09-15.74,0-1.27,0-1.73.28-1.72,1.64q.11,11.5,0,23c0,1.37.48,1.66,1.72,1.62C1049.81,323.52,1052.56,323.57,1055.31,323.57Zm-243.18-16.2h0v-6.25c0-3.85,0-3.77-3.77-3.8-1.48,0-2,.32-2,1.91.11,4.91.09,9.82,0,14.73-.06,3.69-1.67,5.41-4.78,5.39S797,317.6,797,313.9c0-4.16,0-8.32,0-12.48,0-4.45,0-4.41-4.51-4.09-1,.07-1.47.32-1.44,1.43.16,5.9-.31,11.82.32,17.71a7.69,7.69,0,0,0,5.95,7.15,16.8,16.8,0,0,0,7.42.32c4.77-.81,7.2-3.71,7.38-8.59C812.21,312.69,812.13,310,812.13,307.37ZM750.49,313c0-1.67-.06-3.34,0-5,.09-1.88-.85-4.37.43-5.47,1.08-.92,3.5-.48,5.29-.31,2.15.2,2-1,1.94-2.43s.25-2.52-1.92-2.45c-5.66.16-11.33.13-17,0-1.81,0-2.37.37-2.39,2.29,0,2.09.53,2.87,2.62,2.56,1-.15,2,.08,3-.05,1.95-.27,2.36.58,2.32,2.39-.1,5.74,0,11.49-.06,17.24,0,1.34.28,2.05,1.77,1.85a8.36,8.36,0,0,1,2,0c1.45.18,2.1-.24,2-1.88C750.4,318.79,750.49,315.87,750.49,313Zm99.08-15.61c-2.83,0-5.67.12-8.49,0-1.81-.1-2.16.53-2.19,2.23,0,2,.33,3,2.53,2.62,1-.16,2,.07,3-.05,1.86-.24,2.44.42,2.4,2.32-.13,5.75,0,11.5-.08,17.24,0,1.56.43,2.14,2,1.91a6.41,6.41,0,0,1,1.75,0c1.65.25,2.12-.43,2.08-2.06-.11-4.42-.08-8.83,0-13.25,0-2-.85-4.48.39-5.77s3.63-.25,5.52-.37h.25c2.32.2,1.34-1.56,1.45-2.57s.44-2.35-1.55-2.25C855.58,297.46,852.57,297.35,849.57,297.35Zm23.49,12.92c0,3.83.06,7.66,0,11.49,0,1.41.41,1.86,1.84,1.84,5-.08,10-.15,15,0,2.29.08,1.84-1.3,1.78-2.54s.71-2.76-1.69-2.62c-3,.18-6-.07-9,.08-1.81.1-2.19-.55-2.16-2.24.1-5.66,0-11.32.07-17,0-1.47-.31-2.21-1.91-2a7.44,7.44,0,0,1-2,0c-1.56-.21-2,.43-1.92,2C873.14,303,873.06,306.61,873.06,310.27Zm-87-2.22h.06c0-2.82-.15-5.66,0-8.47.14-2-.61-2.51-2.38-2.24a3.75,3.75,0,0,1-1.25,0c-1.77-.3-2.2.44-2.17,2.17.12,5.49,0,11,0,16.46,0,1.72-.42,3.19-2.45,3.42a2.6,2.6,0,0,1-3.13-3c.29-3.45-1.78-3.09-4-3.05-1.16,0-1.7.31-1.55,1.54.11.91,0,1.84.2,2.73.81,4.92,3.49,6.74,9.42,6.47,4.35-.2,6.91-2.75,7.12-7.33C786.13,313.87,786,311,786,308.05Zm196.11,13.37c-.28-.95.75-2.79-.54-3.33a7.29,7.29,0,0,0-4.64,0c-1.07.34-.33,1.92-.48,2.93-.06.41,0,.84,0,1.25-.09,1,.27,1.38,1.26,1.3,2.7-.24,1.61,1.24.95,2.3a6.47,6.47,0,0,1-1.72,1.4,1.44,1.44,0,0,0-.31,2c.38.67,1,.1,1.54-.09C981.72,327.87,982.24,325,982.13,321.42ZM732.31,297.35c-2.79,0-2.84,0-2.74,1.44.2,2.63.55,5.26.67,7.9.07,1.36.65,1.58,1.85,1.61s1.7-.53,1.77-1.73c.12-2.23.25-4.47.58-6.68C734.74,297.9,734.36,296.82,732.31,297.35Z" transform="translate(-0.35 -0.37)"/><path class="cls-3" d="M442.68,653.1c5.83,0,11.65.1,17.47-.05,2.2-.06,2.1,1.06,2.15,2.59S462,658,460.14,658q-17.59-.12-35.18,0c-2.18,0-2.12-1-2.17-2.61s.32-2.36,2.18-2.32C430.87,653.17,436.78,653.1,442.68,653.1Z" transform="translate(-0.35 -0.37)"/><path class="cls-1" d="M237.48,244.42c-1.13,2.49.93,4.68,2.15,6.82s.28,3.84-.31,5.62c-1,3-2.92,4.2-6.06,4.24a13.85,13.85,0,0,0-2.73.22c-3.15.71-6,.25-8.24-2.2a3.07,3.07,0,0,0-2.66-1.09c-.33,0-.81.11-1-.07-3-3.22-7.18-1.09-10.6-2.34a2.37,2.37,0,0,0-1.72,0c-2.73,1.46-6,2-8.33,4-3,2.69-7.17,3.52-10.14,6.28-.58.54-1.32.49-1.27-.59.07-1.55-.44-3.18.51-4.63a1.45,1.45,0,0,0,.31-.67c-.36-4.16,2.12-7.9,2-11.9-.15-6.56,2.47-12.07,5.73-17.33,1.38-2.24,1-4.83,2.35-7,2.69-4.21,3.62-9.4,7-13.21,3-3.36,5.69-7,9.07-10.06,2.62-2.38,4.93-5.09,8-6.92a3.23,3.23,0,0,1,1.86-.59c.8.05,1.77-.22,2.21.73a1.83,1.83,0,0,1-.47,2.47c-.64.46-.92,1-.5,1.68s1.13.32,1.77.21c2.66-.45,3.31-2.81,4.39-4.67.53-.92.76-1.35,2-1.13,2.07.37,2.92-1,3.17-2.89.14-1.14-.76-2.94.79-3.26,1.77-.38,3.8-.79,5.53.47a10.47,10.47,0,0,1,1,.78c1.77,1.57,3.43,2.42,4.91-.39A2.15,2.15,0,0,1,250.4,186c3,.15,6-.37,9,.39a5.79,5.79,0,0,0,3.4-.47c3-1.09,6.55-.13,9.16-2.51a1.11,1.11,0,0,1,1.39-.21c2.12,1.4,4.13.68,6.15-.25a3,3,0,0,1,2.39-.09c5.3,1.84,10.66,1.62,16,.26a2,2,0,0,1,1.67.23,39.64,39.64,0,0,1,9,8c1.61,2.07,4.16,4.07,6.66,4.4,5.71.75,7.55,5.6,10.79,9,1,1.08.32,2.24-.81,3.17-1.35,1.11-2.14,2.31.33,3.21,1.36.5,2,1.94,3,2.91,2.45,2.31,5.11,4.36,7.59,6.65s4.29,5.58,7.17,7.7,4.32,6,7.77,7.66c.51.25.9.52.68,1.1a1.05,1.05,0,0,1-1.22.68c-2.42-.57-4.93-.17-7.35-1-3.05-1-6.2-1.73-9.33-2.46-5.39-1.26-11-1.94-16.11-3.82a70.89,70.89,0,0,1-8.45-4.23A45.84,45.84,0,0,0,297,222a19.42,19.42,0,0,1-6.16-2.51c-2.7-1.62-5.41-2.36-8.38-.69a3.27,3.27,0,0,1-1.72.17,17.51,17.51,0,0,0-7,1.36c-3.42,1.17-6.84,2.31-10.23,3.57a8.77,8.77,0,0,0-3.18,1.84c-3.31,3.16-7.48,5.06-11.13,7.73a7.3,7.3,0,0,0-2.13,2c-.75,1.19-1.7,1.83-3.32,1s-3.28-.67-3.91,1.55a2.4,2.4,0,0,1-.42.9C237.47,241.28,237.46,241.27,237.48,244.42Z" transform="translate(-0.35 -0.37)"/><path class="cls-1" d="M270.45,297.27c2.11-1.37,4.56-1.07,6.71-1.73,7.08-2.17,13.46-5.35,18.78-10.61,4.06-4,6.24-9.13,8.82-14a.44.44,0,0,0,.09-.23c-.61-5.24,4-6.94,6.72-9.92a2.71,2.71,0,0,1,2.29-.71,47,47,0,0,1,4.75,0c3.25.33,5.21-1.75,7.27-3.67a1.25,1.25,0,0,0,.32-1.54c-.58-1.65.49-3.08,2.06-2.63,5.24,1.51,10.35.32,15.48-.51.17,0,.34-.12.49-.09,5.3,1,11.21.83,15.11,5.24,3.09,3.5,4.05,8.12,4.26,12.77.08,1.58.48,2.8,2.08,3.46a6.18,6.18,0,0,1,3.07,8.4c-.83,1.77-2,3.42-1.93,5.58a4.47,4.47,0,0,1-2.09,3.74c-1.64,1.18-1.78,2.37-.08,3.79,2,1.66,1.85,3.89-.23,5.43-1.31,1-2.5,1.56-1.54,3.82,1.06,2.51-.54,5.11-1.9,7.18-1.64,2.48-2,3.35-.32,5.91a5.73,5.73,0,0,1,.68,1,1,1,0,0,1-.18,1.15c-.29.24-.59,0-.88-.17a4.74,4.74,0,0,0-4.26-.66,1.83,1.83,0,0,1-2-.75,2.36,2.36,0,0,0-3.27-.88c-1.19.74-1.46,2.29-1.28,3.75.09.69.88,1.39.11,2.06-1,.89-1.12-.52-1.7-.77-.84-.35-5.5,1.41-5.79,2.25-.19.58.3.87.54,1.29.91,1.56-.64,2.42-1.18,3.52s-1.22-.07-1.81-.24a24,24,0,0,0-7.92-.52,2.74,2.74,0,0,0-1.3.56c.83,3.09-4.21,2.28-3.51,5.36.31,1.38.12,2.89-1.55,3.56-.38.15-1,.48-1.14.34-1.77-1.55-5-.79-5.84-3.93a5.69,5.69,0,0,0-4.18-3.56c-3.56-.67-5.64-4-9.32-4.31-5.13-.37-10.22-2.78-15.37.07-1.66.92-3.61.24-5.42.34-1.1.07-2.19,0-2.74,1.25a1,1,0,0,1-.5.53c-1.08.39-1.8.06-2.83-.66-2.24-1.55-5.42-2.84-2.35-5.79,2.13-2,2-4.82,3.59-6.88.36-.47,0-1.1-.59-1.47a1.53,1.53,0,0,1-.72-1.51c.27-1.9-.65-3.35-1.77-4.72-.9-1.1-1.19-1.91.58-2.54s1.45-1.89.47-3c-1.43-1.59-2.81-3.33-5.23-3.5A1.62,1.62,0,0,1,270.45,297.27Z" transform="translate(-0.35 -0.37)"/><path class="cls-1" d="M396.71,277c5.33-1.26,7.35-3.73,7.29-8.75,0-2.15.48-4,2.54-4.61,2.28-.69,4.13.73,5.52,2.38,2.94,3.49,4.92,7.59,6.88,11.67.15.29.24.66.67.61a1,1,0,0,0,.86-1.05c.06-1.49.26-3-.43-4.43-1.74-3.47-1.88-7.36-3-11-1.23-4-5.21-7.4-8.92-5.38a40,40,0,0,1-6,2.49c-2.46.86-5,1.24-7.24-.73-1.38-1.2-1.36-2.39,0-3.47,5.18-4.17,11-6.55,17.73-5.3a9.64,9.64,0,0,1,7,5.13c1.28,2.71,3.62,4.66,4.52,7.6,1,3.29,2.74,6.39,2.74,9.92,0,6.29,1.69,12.58.23,18.87a25.65,25.65,0,0,1-3.19,7.16c-1,1.61-1.75,3.34-2.55,5.05-1.59,3.4-4.39,5.8-6.78,8.56-1.47,1.71-2.52,3.77-4.14,5.5-1.3,1.39-.85,3.84,0,5.73,1.68,4,3.65,7.83,5.17,11.93a65.53,65.53,0,0,0,5.87,11.8c1.35,2.16.77,5,1.13,7.51,1,7.13-1,14.19-.71,21.29.14,3.1-.87,6.39,1.28,9.33.93,1.27.54,2.58-1.11,3.47-2.12,1.13-2.06,2.95,0,4.23.54.33,1.12.69.91,1.31-1.12,3.36-.72,7.39-4.13,9.76-1,.73-.72,1.57-.32,2.42.86,1.81,0,3.07-1.39,4s-2.5.36-3.48-.76a2.5,2.5,0,0,0-1.76-.82c-.77-.07-1.88.4-2.18-.66-.45-1.58-1.13-4.56-.85-4.67,2.95-1.12.69-3.35.84-4.71.18-1.7-2.11-1.11-3.23-.5-1.54.85-2.33.59-2.66-1.08-.05-.29,0-.85.18-.9,2.85-.89,2.53-4.21,4.53-5.8,1.23-1-.63-4.3-2.56-4.67a4.37,4.37,0,0,0-1.25-.05c-.7.07-1.63-.33-2,.55s.54,1.24,1.05,1.74c1.63,1.58,1.61,2.71-.09,3.79a2,2,0,0,1-2.9-.32c-.5-.56-.88-1.22-1.4-1.74-2.9-2.87-2.85-2.8,0-5.68a2.49,2.49,0,0,0-.06-3.91,5.58,5.58,0,0,1-1.82-3.61,18,18,0,0,0-3.18-7.16c-.89-1.22-.55-2,.58-2.89,2.75-2.21,2.69-2.28.75-5.36-.53-.83-.83-1.81,0-2.51,2.2-1.86,1.5-4.28,1.27-6.51-.47-4.53-1.22-9-1.77-13.56-.18-1.47-1.38-2.62-1.07-4.27.2-1.08.43-2,1.52-2.33,1.88-.55,2.51-2,3-3.66.8-2.84,1.44-3.14,3.88-1.84,1.1.58,2.48-.63,2.67-2.36.17-1.46-.25-2.94.66-4.36.6-.94-.42-1-1.07-1.05-1.78-.16-3.13.9-4.59,1.63-2.83,1.41-5.43.15-6.56-2.81-.9-2.34-1.7-4.85-4-6.41-2.87-2-2.94-4.84-2.13-7.78a17,17,0,0,0-.05-9.8c-.66-2.15-.29-4.47-1.59-6.63-1.06-1.78,0-2.68,2.08-3.05a5.59,5.59,0,0,1,6.07,2.31c1.48,1.81,3.41,3,3.09,5.76-.12,1.06.16,2.11,1.71,1.57a1.32,1.32,0,0,1,.48-.09c4.28.07,4.28.07,3-3.79a1.3,1.3,0,0,1,.2-1.39c.44-.48.9-.13,1.38-.06,1.4.2,2.17,1.35,2.84,2.26.84,1.15,2.13,1.51,3.06,2.43a1.22,1.22,0,0,0,1.82,0c2.16-2.48,3.58-8.48.16-10.37-2.13-1.18-4.66-2.35-7.21-2.15C401.45,280.32,399.53,278.43,396.71,277ZM392,301.83c0,.22-.44,1.28.63,1.61a2.48,2.48,0,0,0,2.76-.58,31.18,31.18,0,0,1,2.46-2.42c1.49-1.3,1.46-2.82.93-4.54-.38-1.22-.94-1.66-2.16-1.06C394.59,295.84,391.54,298.88,392,301.83Z" transform="translate(-0.35 -0.37)"/><path class="cls-1" d="M270.39,292.62c-3.31-.91-6.86-1.22-10.09-2.81-2.44-1.2-2.48-3.92-3.71-5.87-.69-1.12-.94-2.62-1.76-3.78-.31-.44-.51-.91-.16-1.37a1.09,1.09,0,0,1,1.37-.27c2.91,1.49,6.3,2.11,8.59,4.73.67.76,1.43,1.57,2.56,1s.69-1.51.4-2.42c-.38-1.22-.1-2.07,1.34-2.38,3.46-.74,6.83-1.94,10.49-1.52,1.87.21,2.76-1.37,3.45-2.7,1.23-2.38,2.84-3.36,5.62-4,3.2-.75,7-.25,9.63-3.07,1-1.05,1.47-.32,1.43.76A17.63,17.63,0,0,1,295.48,280a40.22,40.22,0,0,1-15.94,10.83C276.74,292,273.56,292.05,270.39,292.62Z" transform="translate(-0.35 -0.37)"/><path class="cls-1" d="M180.32,293.55a43.1,43.1,0,0,1,3.48,8.22,9.64,9.64,0,0,0,3.14,4.86c1.67,1.41,2.32,1.05,2.63-1.11.1-.75-.49-1.88.62-2.15.87-.21,1.35.84,2,1.31,3,2.11,5.28,4.66,6.11,8.4.17.79.48,1.28-.19,1.92a1.59,1.59,0,0,1-2,.4c-2.62-1.17-5.31-2.19-7.95-3.32-3-1.29-6.08-2.59-9.18-3.72a4.19,4.19,0,0,1-2.87-3.85C175.57,300.13,176.56,296.36,180.32,293.55Z" transform="translate(-0.35 -0.37)"/><path class="cls-1" d="M286.4,357.4c-.21.72-.57,1.07-1,1-2-.28-2.9,1.31-4.15,2.28a3.89,3.89,0,0,1-1.43.85,88.11,88.11,0,0,0-12.71,4.69c-2.78,1.27-5.73,2.21-8.45,3.65-.58.3-1.11,0-1.58-.43a5.86,5.86,0,0,0-1.23-.82c-.89-.42-2.64.59-2.66-.89,0-1.05,1.72-1.9,2.74-2.07,4.16-.7,7.13-3.49,10.53-5.54q3.64-2.2,7.3-4.4a1.36,1.36,0,0,1,1.43,0,12,12,0,0,0,8.63.9A3.1,3.1,0,0,1,286.4,357.4Z" transform="translate(-0.35 -0.37)"/><path class="cls-1" d="M293,240.49c-.55.28-.7.42-.83.41-5.11-.59-10,.57-14.88,1.85-1.71.45-3.28-.27-4.89-.52a1.6,1.6,0,0,1-1.26-1.91c.26-1.57.67-3.06,2.45-3.68a25,25,0,0,1,13.58-.44C289.54,236.7,291.21,238.57,293,240.49Z" transform="translate(-0.35 -0.37)"/><path class="cls-1" d="M137,268.52c-1.49-.13-3-.21-4.46-.41-.71-.1-1.5-.27-1.49-1.33,0-.79.06-1.54.92-1.85,3.89-1.39,5.9-4.88,8.45-7.72.94-1,1.83-1.26,2.77-.77,1.21.62.37,1.62-.1,2.32-.77,1.16-1.06,1.94.15,3.2,1.42,1.49.55,3.53,0,5.2-.4,1.22-1.86,1.18-3,1.25s-2.16,0-3.25,0Z" transform="translate(-0.35 -0.37)"/><path class="cls-1" d="M199.43,280a17.18,17.18,0,0,1,1.8,0c.7.09,1.72-.4,2,.48a1.94,1.94,0,0,1-1.09,2c-4.28,1.21-5.48,5.7-8.74,8-.82.56-1.42,1.49-2.57.92s-.22-1.61-.39-2.4c-.84-3.93,2-5.82,4.34-8C196.21,279.65,198,280,199.43,280Z" transform="translate(-0.35 -0.37)"/><path class="cls-1" d="M300.69,238.2c-2.61.14-3.75-1.15-4.19-2.61s1-2.42,2.28-2.75c1.93-.49,3.47-2,5.58-2,.82,0,1.78-.09,2.12.9a2.29,2.29,0,0,1-.52,2.72A26.31,26.31,0,0,1,300.69,238.2Z" transform="translate(-0.35 -0.37)"/><path class="cls-1" d="M372.28,157.23c1.63,1.82,3,3.06,2.77,5.26-.16,1.34.6,2.33,1.43,3.32a2.83,2.83,0,0,1,.25,3.06c-.44,1-1.32.16-2,.29s-.79-.3-.81-.69C373.73,164.88,371.66,161.58,372.28,157.23Z" transform="translate(-0.35 -0.37)"/><path class="cls-1" d="M277.21,261.42c-.7-.22-2.48.52-2.34-1,.18-1.9-.42-4.28,1.75-5.61a.69.69,0,0,1,1.1.54,6.43,6.43,0,0,0,1.41,2.82c.52.72,1.41,1.62.82,2.6S278.36,261.48,277.21,261.42Z" transform="translate(-0.35 -0.37)"/><path class="cls-2" d="M202.17,48.49a2.09,2.09,0,0,1,.25,0c3.19.45,5.25-.12,6.7-3.77,2.08-5.26,6.75-7.61,12.47-7.32,5.42.28,9.2,3.1,11.42,8,.53,1.16.91,1.92,2.32,1.22a2.15,2.15,0,0,1,1.46-.18c3.28,1.21,4.3-.89,5.76-3.27,2.84-4.63,7.43-6.35,12.7-5.67a12.19,12.19,0,0,1,10.58,8.68c.68,2.05,1.67,2.5,3.57,2.37,2.07-.14,4.17,0,6.24-.05,1.45,0,2.14.36,2.1,2s-.21,2.4-2,2.31c-2.07-.12-4.17.12-6.24-.07s-3,.64-3.75,2.59a13.13,13.13,0,0,1-22.36,4,13.57,13.57,0,0,1-3-6c-.38-1.66-1.2-2.75-3-2.71a3.43,3.43,0,0,0-3.55,2.8c-1.86,6.46-6.46,10.25-12.63,10.58-5.71.31-10.74-3.37-13.08-9.68A1.91,1.91,0,0,0,206,52.69c-2.58.07-5.17-.07-7.75.05-1.69.08-1.87-.76-1.87-2.12s.09-2.31,1.83-2.15C199.5,48.59,200.84,48.49,202.17,48.49Zm18.74-7a9,9,0,0,0-9.16,8.9,9.25,9.25,0,0,0,9.14,9.31,9.37,9.37,0,0,0,9.05-9.17A9,9,0,0,0,220.91,41.54Zm32.46,0a9,9,0,0,0-9.06,9,9.37,9.37,0,0,0,9,9.2,9.26,9.26,0,0,0,9.15-9.28A8.93,8.93,0,0,0,253.37,41.54Z" transform="translate(-0.35 -0.37)"/><path class="cls-2" d="M408.66,58.12c-4.2,0-6.76-2.71-6.74-7.17s2.58-7.17,6.74-7.17,6.86,2.66,6.81,7.07S412.71,58.1,408.66,58.12Zm-4.05-7.24c-.05,2.87,1.64,4.94,4.06,5,2.24,0,4-2.15,4.1-5,.07-2.67-1.63-4.72-4-4.77C406.32,46.05,404.65,48,404.61,50.88Z" transform="translate(-0.35 -0.37)"/><path class="cls-2" d="M807,58.1c-3,.12-4.88-.76-5.86-3-.31-.7-.81-1.71.28-2.12a1.46,1.46,0,0,1,2.15,1c.81,2.22,2.6,2.22,4.52,1.57a1.55,1.55,0,0,0,1.27-1.61,1.41,1.41,0,0,0-1.25-1.34c-1.27-.32-2.56-.61-3.82-1-1.57-.48-2.89-1.17-3-3.16a4,4,0,0,1,2.68-4.3c2.8-1.16,6.46,0,7.34,2.34.27.71.6,1.62-.21,2s-1.84.54-2.22-.76a1.93,1.93,0,0,0-1.75-1.54c-1.22-.1-2.72-.38-3.11,1.24s1.19,1.65,2.21,2c.71.22,1.45.35,2.17.51,2.06.44,3.53,1.46,3.62,3.77s-1.38,3.61-3.46,4.24A6.3,6.3,0,0,1,807,58.1Z" transform="translate(-0.35 -0.37)"/><path class="cls-2" d="M1022.93,50.74c-.06-5,3.25-7.87,7.9-6.9a4.72,4.72,0,0,1,3.1,1.89c.54.79,1.69,1.88.52,2.73-.89.65-2,.17-2.58-1.08a2.66,2.66,0,0,0-2.76-1.29c-2.46.08-3.64,1.82-3.57,5.23.06,2.75,1.49,4.62,3.62,4.48a3.31,3.31,0,0,0,3.12-2.46c.37-1.25,1.29-1.28,2.15-1,1.23.46.46,1.4.2,2.09-1,2.6-3.35,3.91-6.39,3.63a6,6,0,0,1-5.3-5.12A15.21,15.21,0,0,1,1022.93,50.74Z" transform="translate(-0.35 -0.37)"/><path class="cls-2" d="M911.48,50.71v-1c0-6.39.19-6.55,6.7-5.76A4,4,0,0,1,922.06,48a4.11,4.11,0,0,1-3.89,4.33,1.36,1.36,0,0,1-.49,0c-3-.64-4.17.52-3.6,3.56.15.77.21,1.68-1.13,1.71s-1.51-.64-1.48-1.7C911.51,54.2,911.48,52.45,911.48,50.71Zm4.95-.79c1.32,0,2.93.18,2.88-1.8,0-2.19-1.93-1.55-3.21-1.75s-2,.11-2.07,1.8C914,50.28,915.19,50,916.43,49.92Z" transform="translate(-0.35 -0.37)"/><path class="cls-2" d="M832.88,54c.7-2,1.33-3.57,1.82-5.21.37-1.24,1.18-1.66,2.25-1.24,1.28.51.34,1.44.11,2.1-.75,2.19-1.66,4.33-2.43,6.52a1.81,1.81,0,0,1-1.94,1.49c-1.14,0-1.38-.75-1.66-1.51-.59-1.55-1-3.15-1.72-4.66-.3-.68-.09-2.06-1.6-1.69-1.16.28-2,.88-2.07,2.14-.07,1.41,0,2.83,0,4.24,0,.84-.09,1.45-1.18,1.45s-1.15-.68-1.15-1.48c0-2.41,0-4.82,0-7.24,0-1.25.61-1.73,1.7-1.35a3,3,0,0,0,1.85-.07c3.11-.62,3.8-.16,4.82,2.92C832,51.48,832.37,52.54,832.88,54Z" transform="translate(-0.35 -0.37)"/><path class="cls-2" d="M416.36,54.52a11.16,11.16,0,0,1,0-2.24c.35-1.58-1.14-3.9.87-4.68,3.18-1.23,6.28-.19,7.46,1.8s.93,5.8-.71,7.45a3.31,3.31,0,0,1-3.11,1.21c-1.78-.46-2.54-.11-2.22,1.85.14.85,0,1.71-1.24,1.65s-1.05-1-1.06-1.82C416.34,58,416.36,56.26,416.36,54.52Zm6.57-1.88c-.12-1.34-.1-3-2.05-3s-2.18,1.71-2.24,3.17.33,3,2.16,3S422.85,54.19,422.93,52.64Z" transform="translate(-0.35 -0.37)"/><path class="cls-2" d="M945.37,47.83V45c0-.71.38-1,1.09-1.05s1.12.29,1.13,1c0,3.92,0,7.83,0,11.75a.83.83,0,0,1-.41.82c-2,1.16-6.22.62-7.56-1a6.5,6.5,0,0,1,.13-7.67C941.25,47,943.18,47.2,945.37,47.83Zm-4.3,4.68c0,1.58.2,3.2,2,3.29s2.29-1.51,2.31-3.09-.29-3-2.08-3S941.12,51.12,941.07,52.51Z" transform="translate(-0.35 -0.37)"/><path class="cls-2" d="M316.42,52.46c0-4.73,0-4.78,4.55-5,1.12-.07,2,0,1.84-1.5a.8.8,0,0,1,.83-1c.56,0,1.59,0,1.33.61-.72,1.75,3,2.1,1.13,4-1.27,1.3-1.53,5.15-.22,6.23.65.54.89,1,.55,1.61a1.47,1.47,0,0,1-1.75.6,2.11,2.11,0,0,1-1.89-2.26c0-1.33.08-2.67-.05-4-.07-.73.7-2.15-.89-2-1.13.08-2.69.11-2.8,1.86-.1,1.49-.08,3-.07,4.48,0,1-.18,1.61-1.36,1.6s-1.21-.84-1.2-1.69Z" transform="translate(-0.35 -0.37)"/><path class="cls-2" d="M853.26,53.6c1.25,2.77,2.25,3,4,1.1.7-.78,1.44-1.05,2.13-.58,1,.65.24,1.5-.23,2.14A4.51,4.51,0,0,1,854.31,58a4.24,4.24,0,0,1-3.48-3.47c-1-4.45,1.56-7.74,5.56-7.16A4,4,0,0,1,859,48.8,4.15,4.15,0,0,1,859.9,53c-.5,1.21-1.92.51-2.92.59C855.82,53.67,854.65,53.6,853.26,53.6Zm4.1-2.3c-.29-1.3-1-1.83-2.15-1.68a1.68,1.68,0,0,0-1.68,1.68Z" transform="translate(-0.35 -0.37)"/><path class="cls-2" d="M815.38,53.6c1,2.72,2.15,3.1,3.82,1.2.74-.85,1.53-1.26,2.27-.6.9.81,0,1.67-.54,2.35A4.52,4.52,0,0,1,816.19,58a4.3,4.3,0,0,1-3.39-3.57c-.87-4.36,1.56-7.52,5.47-7a4,4,0,0,1,3.19,2.11c1.52,2.71.7,4.09-2.36,4.1Zm4.11-2.25c-1.71-2.41-2.72-2.35-4,0Z" transform="translate(-0.35 -0.37)"/><path class="cls-2" d="M369.42,50.79c0-1.74,0-3.49,0-5.23,0-.74-.09-1.55,1-1.62s1.6.52,1.49,1.48c-.21,1.77.21,2.32,2.18,2,2.48-.37,3.65.84,3.82,3.41.11,1.65,0,3.32,0,5,0,1,0,1.83-1.39,1.8s-1.17-.9-1.17-1.72c0-1.33,0-2.66,0-4,0-1.07.17-2.35-1.47-2.3-1.46,0-2,1-2,2.36s0,2.66,0,4c0,.89-.06,1.64-1.28,1.66s-1.29-.71-1.28-1.61C369.43,54.28,369.42,52.54,369.42,50.79Z" transform="translate(-0.35 -0.37)"/><path class="cls-2" d="M1065.19,47.37c3.35,0,4.27,1,4.41,3.83.09,1.8-.33,3.56.81,5.41.82,1.35-1,1.77-2,1.24a2.77,2.77,0,0,0-2.69,0c-2.17.79-4.4-.26-4.85-2.12-.5-2.1.69-3.71,3.13-4.23.32-.07.66,0,1-.1.67-.13,1.6.33,1.88-.71a1,1,0,0,0-.31-.86,2,2,0,0,0-2.33.06c-.73.7-1.25,1.6-2.44,1.13-.6-.23-.49-.81-.39-1.29a3.07,3.07,0,0,1,2.43-2.24A4.8,4.8,0,0,1,1065.19,47.37Zm1.71,5.72c-1.08,1-3.1-.34-3.41,1.83-.09.68.54,1,1.18.95C1066.13,55.73,1067.15,55.14,1066.9,53.09Z" transform="translate(-0.35 -0.37)"/><path class="cls-2" d="M378.87,52.94c0-4.1,3.19-6.66,6.65-5.28a4.37,4.37,0,0,1,2.69,4.83c-.12.88-.53,1.12-1.31,1.11a25.39,25.39,0,0,0-3.49,0c-.58.06-1.77-.66-1.7.63a1.76,1.76,0,0,0,2.14,1.6c.93-.08,1.41-.77,1.93-1.43a1.36,1.36,0,0,1,2-.26c.67.53.19,1.22-.14,1.78-1.2,2-3.11,2.44-5.2,2.06S378.9,55.5,378.87,52.94Zm2.74-1.68h4C384.29,49,383.27,49,381.61,51.26Z" transform="translate(-0.35 -0.37)"/><path class="cls-2" d="M349.87,53.12c0-4,2.43-6.25,5.78-5.71a4.41,4.41,0,0,1,3.56,5.17c-.17.91-.68,1-1.39,1-1.09,0-2.17,0-3.25,0-.62,0-1.4-.34-1.84.29-.32.45.1.94.42,1.32a1.81,1.81,0,0,0,2.26.5,2.9,2.9,0,0,0,1.09-1c.65-.89,1.56-1.24,2.32-.5s0,1.58-.52,2.2a4.45,4.45,0,0,1-5.18,1.45A4.53,4.53,0,0,1,349.87,53.12Zm6.7-1.77c-.16-1.29-.8-1.77-1.84-1.75a1.8,1.8,0,0,0-2,1.75Z" transform="translate(-0.35 -0.37)"/><path class="cls-2" d="M938.11,52.61c0,3.5-1.89,5.54-5,5.5-2.82,0-4.68-2.17-4.66-5.33,0-3.41,1.95-5.45,5.1-5.41S938.13,49.21,938.11,52.61Zm-2.62.25c0-1.78-.11-3.34-2.26-3.27-1.92.07-2.1,1.56-2.15,3s.21,3.17,2.2,3.23S935.39,54.18,935.49,52.86Z" transform="translate(-0.35 -0.37)"/><path class="cls-2" d="M1045.11,52.57c0,3.52-1.85,5.57-5,5.54-2.83,0-4.7-2.13-4.7-5.28,0-3.43,1.92-5.49,5.06-5.46S1045.12,49.18,1045.11,52.57Zm-7.06.31c.09,1.5.38,3,2.25,3,2.28,0,2.13-1.87,2.17-3.44s-.31-2.93-2.26-2.8S1038.15,51.37,1038.05,52.88Z" transform="translate(-0.35 -0.37)"/><path class="cls-2" d="M345.2,47.39a3.35,3.35,0,0,1,3.66,1.92c.27.53.44,1.16-.14,1.57a1.41,1.41,0,0,1-1.64,0c-.46-.31-.73-1-1.21-1.17-.67-.27-1.68-.46-2,.32-.47,1.06.72,1,1.3,1.3a8.4,8.4,0,0,0,1.67.46c1.65.36,2.75,1.24,2.63,3.05a3.4,3.4,0,0,1-3.25,3.22c-2,.29-4,.12-5.08-2.11-.27-.6-.54-1.39.15-1.81a1.26,1.26,0,0,1,1.92.42,3,3,0,0,0,.93,1.13,2.43,2.43,0,0,0,2.17,0,.84.84,0,0,0,.55-1c-.21-.85-1.09-.6-1.63-.92a4,4,0,0,0-.95-.22c-1.72-.53-3.56-1.11-3.15-3.41C341.49,48.06,343,47.2,345.2,47.39Z" transform="translate(-0.35 -0.37)"/><path class="cls-2" d="M364.34,47.38a3.3,3.3,0,0,1,3.54,2c.26.54.41,1.17-.18,1.56a1.38,1.38,0,0,1-1.64,0c-.44-.34-.57-1.06-1.21-1.18s-1.7-.43-2,.39c-.4,1,.75,1,1.36,1.28a8.5,8.5,0,0,0,1.66.46c1.66.36,2.72,1.27,2.6,3.08s-1.41,2.78-3,3.17c-2.39.58-4.66-.38-5.32-2.13-.23-.62-.51-1.4.2-1.8a1.26,1.26,0,0,1,1.91.47,2.8,2.8,0,0,0,.94,1.12,2.47,2.47,0,0,0,2.17,0,.84.84,0,0,0,.52-1c-.25-.82-1.12-.56-1.66-.9a4,4,0,0,0-1-.21c-1.64-.49-3.28-1.06-3.18-3.2C360.12,48.48,361.77,47.36,364.34,47.38Z" transform="translate(-0.35 -0.37)"/><path class="cls-2" d="M448.16,47.39a3.38,3.38,0,0,1,3.7,1.92c.27.53.44,1.16-.14,1.57a1.41,1.41,0,0,1-1.64,0c-.46-.31-.73-1-1.21-1.17-.67-.27-1.68-.46-2,.32-.47,1.06.72,1,1.3,1.3a8.4,8.4,0,0,0,1.67.46c1.65.36,2.75,1.24,2.63,3.05a3.4,3.4,0,0,1-3.25,3.22c-2,.29-4,.12-5.08-2.11-.27-.6-.54-1.39.15-1.81a1.26,1.26,0,0,1,1.92.42,3,3,0,0,0,.93,1.13,2.43,2.43,0,0,0,2.17,0,.84.84,0,0,0,.55-1c-.21-.85-1.09-.6-1.63-.92a4,4,0,0,0-.95-.22c-1.72-.53-3.56-1.11-3.15-3.41C444.49,48.07,446,47.19,448.16,47.39Z" transform="translate(-0.35 -0.37)"/><path class="cls-2" d="M864.38,58.13a3.47,3.47,0,0,1-3.55-2.41c-.24-.64-.49-1.35.38-1.67.62-.22,1.32-.33,1.76.41a3.64,3.64,0,0,0,.6,1,2.26,2.26,0,0,0,2.36.23c.37-.12.81-.4.73-.89-.17-1-1.22-.67-1.78-1.09-.18-.14-.49-.08-.73-.15-1.54-.4-3.13-.76-3.29-2.8a2.86,2.86,0,0,1,2.21-3.21c1.86-.49,3.85-.64,5.21,1.23.41.57,1,1.39.32,2a1.41,1.41,0,0,1-2.16-.3c-.23-.32-.53-.75-.86-.82-.68-.15-1.63-.49-2,.4s.64,1,1.21,1.23a6.26,6.26,0,0,0,1,.15c2,.51,3.77,1.24,3.25,3.81C868.6,57.62,866.84,58.15,864.38,58.13Z" transform="translate(-0.35 -0.37)"/><path class="cls-2" d="M957.57,52.61v.5c0,4.79-.15,5-4.93,5a3.29,3.29,0,0,1-3.59-3.35c-.16-1.9-.06-3.82-.06-5.73,0-1,.41-1.57,1.49-1.54s1.12.76,1.12,1.55c0,1.58,0,3.16,0,4.75,0,1,.26,2,1.34,2a1.83,1.83,0,0,0,1.95-1.85c.11-1.57.07-3.16.09-4.74,0-.91.17-1.68,1.3-1.73s1.3.75,1.29,1.65C957.56,50.28,957.57,51.44,957.57,52.61Z" transform="translate(-0.35 -0.37)"/><path class="cls-2" d="M976.74,58.13c-1.82,0-3.25-.59-3.92-2.43-.23-.65-.47-1.36.41-1.66.62-.21,1.33-.32,1.75.44a3.27,3.27,0,0,0,.61,1,2.28,2.28,0,0,0,2.36.21c.37-.13.81-.42.71-.9-.19-1-1.23-.66-1.8-1.08-.18-.13-.49-.08-.73-.14-1.54-.41-3.12-.78-3.27-2.82a2.88,2.88,0,0,1,2.23-3.2c1.86-.47,3.86-.63,5.2,1.25.41.57,1,1.4.3,2a1.41,1.41,0,0,1-2.16-.33c-.23-.33-.54-.75-.87-.81-.68-.14-1.64-.49-1.94.43s.67,1,1.25,1.22a7.44,7.44,0,0,0,1,.15c2,.51,3.75,1.26,3.22,3.83C980.59,57.65,978.79,58.13,976.74,58.13Z" transform="translate(-0.35 -0.37)"/><path class="cls-2" d="M302.24,43.94c1.41,0,2.83,0,4.24,0,.9,0,1.45.38,1.44,1.31a1.15,1.15,0,0,1-1.49,1.22c-2.95-.6-3,1.15-2.89,3.27s0,4.32,0,6.48c0,1.11-.48,1.42-1.51,1.42s-1.23-.57-1.22-1.43c0-2.49-.09-5,0-7.48.09-1.68-.33-2.48-2.16-2.26-1,.12-2.2.25-2.2-1.26S297.78,44,298.75,44C299.91,43.92,301.07,43.94,302.24,43.94Z" transform="translate(-0.35 -0.37)"/><path class="cls-2" d="M305.81,52.87c0-3.47,1.68-5.46,4.65-5.5,3.15,0,5,1.91,5,5.17,0,3.47-1.92,5.57-5,5.57C307.55,58.11,305.83,56.16,305.81,52.87Zm7.07.05c-.1-1.56,0-3.2-2.12-3.33s-2.4,1.51-2.5,3,.25,3.13,2.14,3.29C312.47,56,312.6,54.31,312.88,52.92Z" transform="translate(-0.35 -0.37)"/><path class="cls-2" d="M331.65,47.37c3,0,4.8,1.94,4.81,5.12,0,3.45-1.88,5.6-4.95,5.62s-4.73-2-4.7-5.43S328.6,47.35,331.65,47.37Zm-2.5,5.38c.34,1.46.43,3.17,2.47,3.1s2.15-1.74,2.21-3.23-.19-3.08-2.29-3S329.55,51.39,329.15,52.75Z" transform="translate(-0.35 -0.37)"/><path class="cls-2" d="M1079.5,49.45c-.17.73.5,1.79-.75,2.08-.94.22-1.41-.31-2-1.09-.94-1.36-2.37-1.17-3.13.3a4.06,4.06,0,0,0-.19,3.61c.8,1.85,2.23,2.1,3.29.41.63-1,1.25-1.71,2.31-1s.19,1.7-.23,2.41a4.39,4.39,0,0,1-6.13,1.16c-2.17-1.51-2.2-3.73-1.92-6a4.18,4.18,0,0,1,3.1-3.82,4.87,4.87,0,0,1,5.66,2Z" transform="translate(-0.35 -0.37)"/><path class="cls-2" d="M966.94,48.9c.09.89,1.12,2-.27,2.58-1,.46-1.46-.37-2.06-1.16-.93-1.24-2.14-1.11-3,.26a4.46,4.46,0,0,0-.34,3.62,2,2,0,0,0,1.67,1.65,1.6,1.6,0,0,0,1.76-1.11c.47-1.17,1.25-1.72,2.26-.94s.18,1.7-.26,2.42a4.4,4.4,0,0,1-6.71.62,6.3,6.3,0,0,1-.06-8.19c1.83-1.94,4.63-1.82,7.05.3Z" transform="translate(-0.35 -0.37)"/><path class="cls-2" d="M846.42,47.37a3.33,3.33,0,0,1,3.65,2.15c.27.63.72,1.5-.28,1.92-.68.28-1.52.38-1.86-.59a1.64,1.64,0,0,0-2.56-1.05c-1.51.89-1.41,2.53-1.2,4a2.09,2.09,0,0,0,1.86,2c1,.09,1.51-.62,1.81-1.42a1.31,1.31,0,0,1,2-.75c1,.48.4,1.32.17,1.93A4.46,4.46,0,0,1,844.84,58c-2.33-.68-3.75-3.34-3.34-6.23A4.65,4.65,0,0,1,846.42,47.37Z" transform="translate(-0.35 -0.37)"/><path class="cls-2" d="M434.82,52.52c.08-3.67,2.21-5.59,5.69-5.14a3.31,3.31,0,0,1,2.82,2.12c.28.68.64,1.52-.27,2a1.31,1.31,0,0,1-1.89-.64,1.69,1.69,0,0,0-2.4-1.08c-1.46.69-1.33,2.14-1.33,3.47,0,1.14.28,2.23,1.47,2.6,1,.31,1.72-.33,2.13-1.26s1.12-1.37,2-.89c1.15.64.49,1.61.05,2.36a4.27,4.27,0,0,1-4.93,2C436,57.54,434.77,55.35,434.82,52.52Z" transform="translate(-0.35 -0.37)"/><path class="cls-2" d="M1046.28,52.56c0-.58,0-1.16,0-1.74,0-1.77-.74-3.43,2.73-3.19,5.43.36,5.6-.06,5.6,5.29,0,1.17,0,2.33,0,3.5,0,.82-.29,1.21-1.17,1.21s-1.17-.38-1.16-1.21c0-1.49.06-3,0-4.49,0-1-.07-2.35-1.63-2.29s-2,1.08-2,2.38,0,2.83,0,4.24c0,.91-.27,1.39-1.28,1.36s-1-.58-1-1.31C1046.29,55.06,1046.28,53.81,1046.28,52.56Z" transform="translate(-0.35 -0.37)"/><path class="cls-2" d="M967,49c.15-1.28,1.9-1.83,1.55-3.4-.1-.45.46-.62.9-.63s1.61.1,1.37.59c-.84,1.74,3.08,2.14,1,4.06-1.12,1-1.31,5.26-.17,6.18.62.5,1,.83.64,1.57a1.51,1.51,0,0,1-1.74.66,2.26,2.26,0,0,1-2.1-2.37,33.5,33.5,0,0,1,0-3.75,2.6,2.6,0,0,0-1.5-3Z" transform="translate(-0.35 -0.37)"/><path class="cls-2" d="M1060.61,56.62a1.27,1.27,0,0,1-1.06,1.41,2.43,2.43,0,0,1-2.63-1,5,5,0,0,1-.55-2.63c-.21-1.79.46-3.57-.85-5.41-.77-1.08,1-2.61,1.45-4,0-.08.3-.12.46-.12.57,0,1.63,0,1.49.44-.57,1.81,2.78,2.26,1.37,4.15a5.07,5.07,0,0,0,0,6.5A4.25,4.25,0,0,1,1060.61,56.62Z" transform="translate(-0.35 -0.37)"/><path class="cls-2" d="M1079.55,49.5c-1-1.86,1.42-2.76,1.26-4.4a1.2,1.2,0,0,1,.66-.23c.64,0,1.8,0,1.52.69-.68,1.74,3.07,2.09,1.09,4-1.08,1-1.45,5-.45,6,.57.53,1.25.85.87,1.75a1.39,1.39,0,0,1-1.43.8,2.35,2.35,0,0,1-2.37-1.46c-.61-1.44-.14-3-.33-4.42-.12-1,.63-2.23-.87-2.76Z" transform="translate(-0.35 -0.37)"/><path class="cls-2" d="M426.69,52.63c-.24-.82.86-2.44-1-3.42-.57-.3-.37-1.44.55-1.75,1.26-.43-.25-2.49,1.62-2.57,2.05-.1.72,2,1.65,2.44,1.76.87,1.79,1.49,0,2.4-.68.34-.62,5.36.07,5.87s1.32.75.94,1.68A1.32,1.32,0,0,1,429,58,2,2,0,0,1,427,56.57,31.2,31.2,0,0,1,426.69,52.63Z" transform="translate(-0.35 -0.37)"/><path class="cls-2" d="M393.42,50.77V45.54c0-.78,0-1.53,1.11-1.58a1.19,1.19,0,0,1,1.41,1.32q0,5.61,0,11.21c0,.85-.48,1.12-1.28,1.14-1,0-1.27-.48-1.26-1.38C393.44,54.42,393.42,52.6,393.42,50.77Z" transform="translate(-0.35 -0.37)"/><path class="cls-2" d="M389.42,50.62c0-1.66,0-3.32,0-5,0-.89.06-1.7,1.27-1.68,1,0,1.27.64,1.28,1.47,0,3.66,0,7.31,0,11,0,1-.55,1.25-1.44,1.24s-1.11-.51-1.1-1.28C389.43,54.44,389.42,52.53,389.42,50.62Z" transform="translate(-0.35 -0.37)"/><path class="cls-2" d="M923.28,52.48V51.24c0-3.91.47-4.32,4.34-3.85.43,0,.87.09.92.61s.31,1.4-.35,1.55c-3.38.74-2.47,3.38-2.58,5.58,0,.33,0,.66,0,1,0,.78,0,1.48-1.11,1.5s-1.23-.56-1.21-1.41C923.3,55,923.28,53.73,923.28,52.48Z" transform="translate(-0.35 -0.37)"/><path class="cls-2" d="M337.35,52.62c0-1.24,0-2.47,0-3.71,0-.84.18-1.49,1.2-1.5s1.46.41,1.48,1.3c0,2.64,0,5.28,0,7.93,0,.87-.65,1-1.38,1s-1.3-.19-1.3-1.08c0-1.32,0-2.64,0-4Z" transform="translate(-0.35 -0.37)"/><path class="cls-2" d="M434.05,52.78c0,1.24,0,2.48,0,3.72,0,1-.66,1.18-1.5,1.17s-1.2-.36-1.19-1.19c0-2.56,0-5.12,0-7.68,0-.89.35-1.42,1.31-1.4A1.3,1.3,0,0,1,434,48.82C434.08,50.14,434.05,51.46,434.05,52.78Z" transform="translate(-0.35 -0.37)"/><path class="cls-2" d="M840.6,52.55c0,1.24,0,2.48,0,3.71,0,.9-.25,1.39-1.25,1.36s-1.08-.53-1.08-1.28q0-3.72,0-7.44c0-.84.2-1.47,1.24-1.41.88,0,1.08.59,1.08,1.34Z" transform="translate(-0.35 -0.37)"/><path class="cls-2" d="M432.49,43.88c1.13,0,1.54.47,1.57,1.36,0,1.08-.49,1.45-1.52,1.43s-1.2-.6-1.19-1.45S431.72,43.8,432.49,43.88Z" transform="translate(-0.35 -0.37)"/><path class="cls-2" d="M340.06,45.25c0,.89-.31,1.4-1.28,1.42s-1.43-.18-1.43-1.21.21-1.62,1.35-1.59A1.24,1.24,0,0,1,340.06,45.25Z" transform="translate(-0.35 -0.37)"/><path class="cls-2" d="M840.65,45.33c.08.9-.31,1.36-1.28,1.33s-1.16-.46-1.15-1.25.11-1.5,1.17-1.52S840.7,44.42,840.65,45.33Z" transform="translate(-0.35 -0.37)"/><path class="cls-3" d="M919.14,310.48c.21,7-3,12.12-8.72,13.32-10.26,2.14-16-3.59-16.14-12.33a26.15,26.15,0,0,1,.3-5.46c1.27-6.39,6.35-10,13.15-9.54,6.52.44,10.95,4.8,11.4,11.27C919.2,308.65,919.14,309.57,919.14,310.48Zm-5.57-.14a13.12,13.12,0,0,0-.68-4.38,6.48,6.48,0,0,0-12.36,0,12.66,12.66,0,0,0-.72,4.64c.09,5.27,2.83,8.72,6.9,8.74S913.46,316,913.57,310.34Z" transform="translate(-0.35 -0.37)"/><path class="cls-3" d="M947.15,310.36c.23,7.22-3.16,12.52-9.08,13.56-10.44,1.83-15.7-4.1-15.79-12.58a24.74,24.74,0,0,1,.34-5.45c1.34-6.41,6.42-9.95,13.24-9.42,6.51.51,10.88,4.92,11.28,11.4C947.19,308.7,947.15,309.53,947.15,310.36Zm-5.58.3a13.92,13.92,0,0,0-.67-4.66,6.48,6.48,0,0,0-12.36-.06,12.69,12.69,0,0,0-.73,4.65c.08,5.26,2.79,8.73,6.86,8.77S941.45,316,941.57,310.66Z" transform="translate(-0.35 -0.37)"/><path class="cls-3" d="M700.58,310.43a15.46,15.46,0,0,1-.8,5.88c-2.09,6.05-7.08,8.74-14.37,7.76-5.56-.74-9.55-5.58-9.84-12-.19-4.4.14-8.75,3.48-12.08,4.14-4.14,9.21-4.39,14.34-2.52,4.84,1.76,6.68,5.9,7.17,10.74A21.09,21.09,0,0,1,700.58,310.43Zm-5.63.17a11.51,11.51,0,0,0-1-5.34,6.06,6.06,0,0,0-5.64-3.81,6.13,6.13,0,0,0-6,3.64,11.74,11.74,0,0,0-1.13,5.56c.11,5.22,2.88,8.7,7,8.71S694.88,315.9,695,310.6Z" transform="translate(-0.35 -0.37)"/><path class="cls-3" d="M709.65,306.37c0,5-.13,10.07.07,15.09.08,2.19-.94,2.23-2.5,2.12-1.4-.09-2.89.51-2.83-2.06.19-7.32.12-14.64,0-22,0-1.68.36-2.13,2.13-2.29,2.89-.26,4.46.73,5.77,3.31a123.52,123.52,0,0,0,8.14,13.56c0-4.68,0-9.35,0-14,0-.9-.62-2.3.55-2.62a11.66,11.66,0,0,1,4.21,0c.56.05.4.82.4,1.3,0,7.82,0,15.65,0,23.47,0,1.14-.44,1.29-1.45,1.39-2.78.27-4.67-.34-6.07-3.21-2.38-4.87-5.34-9.45-8.06-14.15Z" transform="translate(-0.35 -0.37)"/><path class="cls-3" d="M650.46,310.5c0-3.83,0-7.66,0-11.48,0-1.3.35-1.73,1.67-1.69,3.24.08,6.49,0,9.73,0,6,0,9.21,2.59,10.45,8.53a19,19,0,0,1-.9,11.26,9.59,9.59,0,0,1-9.22,6.4c-3.32.09-6.65-.05-10,.05-1.51,0-1.79-.53-1.76-1.87C650.51,318,650.46,314.24,650.46,310.5Zm8.94-8.39c-.86.71-3.25-1.48-3.3,1.47-.08,4.56,0,9.13,0,13.69,0,.65-.11,1.24.84,1.5,4.92,1.33,9.07-1,9.76-6.11C667.6,305.78,666.12,301.5,659.4,302.11Z" transform="translate(-0.35 -0.37)"/><path class="cls-3" d="M1006.86,324.12a12.69,12.69,0,0,1-7.18-1.63,7.79,7.79,0,0,1-3.53-4.64c-.53-1.75-.41-2.89,1.92-2.63,1.65.18,3.16-.31,4,2.07,1,2.78,7.34,3,9.19.58,1.12-1.45.71-2.89-1.13-3.79-2.26-1.11-4.79-1.28-7.18-1.94-5.27-1.46-6.81-3.28-6.6-8.07.16-3.95,2.75-6.46,7.44-7.34a12.52,12.52,0,0,1,9.3,1.71,5.56,5.56,0,0,1,2.45,2.74c.47,1.28,1.88,2.74.39,4-1.23,1-4.53-.17-5.34-1.59-1.46-2.52-6.43-3-8.34-.85-1.24,1.41-.9,3,1,3.72a66,66,0,0,0,6.67,1.9c5.62,1.42,7.83,3.77,7.43,8-.46,4.71-4,7.65-9.32,7.81Z" transform="translate(-0.35 -0.37)"/><path class="cls-3" d="M826.8,324.12c-3.87,0-7.47-.7-9.76-4.28a8.06,8.06,0,0,1-1-2.28c-.44-1.52-.24-2.55,1.8-2.34,1.72.16,3.31-.33,4.25,2.12,1,2.77,7.39,2.9,9.19.49,1.1-1.47.67-2.87-1.21-3.77-2.27-1.1-4.79-1.27-7.18-1.93-5.21-1.44-6.77-3.34-6.55-8.12.17-3.85,2.74-6.35,7.25-7.24a12.28,12.28,0,0,1,10.33,2.3,5.61,5.61,0,0,1,1.41,1.72c.74,1.29,1.84,3,.89,4.11s-3,.3-4.54.33c-.67,0-.72-.55-.83-1-.71-3-5.53-3.54-7.89-2.09a2.45,2.45,0,0,0-1.37,2.47,2.16,2.16,0,0,0,1.72,1.9c2.23.64,4.45,1.29,6.7,1.86,5.56,1.4,7.79,3.8,7.36,8-.49,4.71-4,7.61-9.36,7.76C827.64,324.13,827.22,324.12,826.8,324.12Z" transform="translate(-0.35 -0.37)"/><path class="cls-3" d="M956.83,307.62c2.83-3,5.22-5.34,7.35-7.88,1.52-1.81,3.16-2.76,5.56-2.42a24.67,24.67,0,0,0,3.65,0l.41.62c-2.65,2.55-5.33,5.08-8,7.66s-2.5,2.51-.35,5.45c2.65,3.63,5.31,7.24,8,10.87.27.37.82.7.58,1.27s-.86.26-1.31.35h-.25c-3.77.72-6.48-.52-8.23-4.07a27.32,27.32,0,0,0-3.44-4.89c-.54-.68-.8-2.3-1.92-1.72a3.32,3.32,0,0,0-2.06,3.15c.1,1.91,0,3.83,0,5.74.07,1.42-.45,1.82-1.86,1.83-3.72,0-3.72.08-3.72-3.62,0-6.9.11-13.81-.06-20.71-.05-2.43,1.37-2,2.69-1.91s3.17-.79,3,1.91C956.69,301.81,956.83,304.36,956.83,307.62Z" transform="translate(-0.35 -0.37)"/><path class="cls-3" d="M1021.37,310.49c0-3.83.06-7.66,0-11.49,0-1.33.37-1.69,1.68-1.68,5.33.07,10.67.1,16,0,2.27,0,1.46,1.5,1.52,2.54s.52,2.38-1.51,2.31c-3.5-.13-7,.05-10.5-.07-2.61-.08-1.55,1.78-1.68,2.94s-.44,2.53,1.7,2.41c3.07-.17,6.17.07,9.24-.09,2.14-.11,1.68,1.26,1.69,2.42s.41,2.52-1.72,2.39c-3-.17-6,0-9-.07-1.53-.06-2,.43-2,2,0,4.44-.08,4.44,4.43,4.44,2.58,0,5.17.11,7.74,0,1.7-.09,2.22.33,2.27,2.13.07,2.27-.33,3.19-2.9,3.05a140.91,140.91,0,0,0-14.24,0c-2.42.11-2.87-.75-2.76-2.9C1021.5,317.33,1021.37,313.91,1021.37,310.49Z" transform="translate(-0.35 -0.37)"/><path class="cls-3" d="M1055.31,323.57c-2.75,0-5.5-.05-8.25,0-1.24,0-1.73-.25-1.72-1.62q.11-11.5,0-23c0-1.36.45-1.66,1.72-1.64,5.24.06,10.5.13,15.74,0,2.33-.07,1.71,1.38,1.78,2.59s.21,2.4-1.82,2.29c-3.41-.19-6.83,0-10.24-.07-2.63-.08-1.52,1.81-1.65,3s-.42,2.51,1.71,2.38c3.08-.18,6.17.07,9.25-.08,2.17-.11,1.63,1.3,1.66,2.43s.38,2.51-1.75,2.38c-3-.19-6,0-9-.08-1.58-.07-2,.48-2,2,0,4.42-.07,4.42,4.45,4.42,2.83,0,5.67.05,8.5,0,1.09,0,1.38.31,1.44,1.39.22,3.7.27,3.7-3.37,3.7Z" transform="translate(-0.35 -0.37)"/><path class="cls-3" d="M812.13,307.37c0,2.66.08,5.32,0,8-.18,4.88-2.61,7.78-7.38,8.59a16.8,16.8,0,0,1-7.42-.32,7.69,7.69,0,0,1-5.95-7.15c-.63-5.89-.16-11.81-.32-17.71,0-1.11.41-1.36,1.44-1.43C797,297,797,297,797,301.42c0,4.16,0,8.32,0,12.48,0,3.7,1.51,5.43,4.65,5.45s4.72-1.7,4.78-5.39c.08-4.91.1-9.82,0-14.73,0-1.59.48-1.93,2-1.91,3.77,0,3.77-.05,3.77,3.8v6.25Z" transform="translate(-0.35 -0.37)"/><path class="cls-3" d="M750.49,313c0,2.91-.09,5.83,0,8.74.08,1.64-.57,2.06-2,1.88a8.36,8.36,0,0,0-2,0c-1.49.2-1.78-.51-1.77-1.85.06-5.75,0-11.5.06-17.24,0-1.81-.37-2.66-2.32-2.39-1,.13-2-.1-3,.05-2.09.31-2.64-.47-2.62-2.56,0-1.92.58-2.33,2.39-2.29,5.66.12,11.33.15,17,0,2.17-.07,1.91,1.09,1.92,2.45s.21,2.63-1.94,2.43c-1.79-.17-4.21-.61-5.29.31-1.28,1.1-.34,3.59-.43,5.47C750.43,309.62,750.49,311.29,750.49,313Z" transform="translate(-0.35 -0.37)"/><path class="cls-3" d="M849.57,297.35c3,0,6,.11,9,0,2-.1,1.67,1.17,1.55,2.25s.87,2.77-1.45,2.57h-.25c-1.89.12-4.38-.81-5.52.37s-.36,3.8-.39,5.77c-.06,4.42-.09,8.83,0,13.25,0,1.63-.43,2.31-2.08,2.06a6.41,6.41,0,0,0-1.75,0c-1.54.23-2-.35-2-1.91.09-5.74-.05-11.49.08-17.24,0-1.9-.54-2.56-2.4-2.32-1,.12-2-.11-3,.05-2.2.35-2.58-.64-2.53-2.62,0-1.7.38-2.33,2.19-2.23C843.9,297.47,846.74,297.35,849.57,297.35Z" transform="translate(-0.35 -0.37)"/><path class="cls-3" d="M873.06,310.27c0-3.66.08-7.32,0-11,0-1.52.36-2.16,1.92-2a7.44,7.44,0,0,0,2,0c1.6-.23,1.93.51,1.91,2-.07,5.66,0,11.32-.07,17,0,1.69.35,2.34,2.16,2.24,3-.15,6,.1,9-.08,2.4-.14,1.64,1.47,1.69,2.62s.51,2.62-1.78,2.54c-5-.17-10-.1-15,0-1.43,0-1.87-.43-1.84-1.84C873.12,317.93,873.06,314.1,873.06,310.27Z" transform="translate(-0.35 -0.37)"/><path class="cls-3" d="M786,308.05c0,2.91.11,5.82,0,8.72-.21,4.58-2.77,7.13-7.12,7.33-5.93.27-8.61-1.55-9.42-6.47-.15-.89-.09-1.82-.2-2.73-.15-1.23.39-1.51,1.55-1.54,2.2,0,4.27-.4,4,3.05a2.6,2.6,0,0,0,3.13,3c2-.23,2.45-1.7,2.45-3.42,0-5.49.08-11,0-16.46,0-1.73.4-2.47,2.17-2.17a3.75,3.75,0,0,0,1.25,0c1.77-.27,2.52.25,2.38,2.24-.2,2.81,0,5.65,0,8.47Z" transform="translate(-0.35 -0.37)"/><path class="cls-3" d="M982.13,321.42c.11,3.53-.41,6.45-4,7.76-.52.19-1.16.76-1.54.09a1.44,1.44,0,0,1,.31-2,6.47,6.47,0,0,0,1.72-1.4c.66-1.06,1.75-2.54-.95-2.3-1,.08-1.35-.35-1.26-1.3,0-.41,0-.84,0-1.25.15-1-.59-2.59.48-2.93a7.29,7.29,0,0,1,4.64,0C982.88,318.63,981.85,320.47,982.13,321.42Z" transform="translate(-0.35 -0.37)"/><path class="cls-3" d="M732.31,297.35c2.05-.53,2.43.55,2.13,2.54-.33,2.21-.46,4.45-.58,6.68-.07,1.2-.43,1.76-1.77,1.73s-1.78-.25-1.85-1.61c-.12-2.64-.47-5.27-.67-7.9C729.47,297.35,729.52,297.35,732.31,297.35Z" transform="translate(-0.35 -0.37)"/><path class="cls-3" d="M392,301.83c-.46-2.95,2.59-6,4.62-7,1.22-.6,1.78-.16,2.16,1.06.53,1.72.56,3.24-.93,4.54a31.18,31.18,0,0,0-2.46,2.42,2.48,2.48,0,0,1-2.76.58C391.56,303.11,392,302.05,392,301.83Z" transform="translate(-0.35 -0.37)"/><path class="cls-3" d="M220.91,41.54a9,9,0,0,1,9,9,9.37,9.37,0,0,1-9.05,9.17,9.25,9.25,0,0,1-9.14-9.31A9,9,0,0,1,220.91,41.54Z" transform="translate(-0.35 -0.37)"/><path class="cls-3" d="M253.37,41.54a8.93,8.93,0,0,1,9.11,8.93,9.26,9.26,0,0,1-9.15,9.28,9.37,9.37,0,0,1-9-9.2A9,9,0,0,1,253.37,41.54Z" transform="translate(-0.35 -0.37)"/><path class="cls-3" d="M404.61,50.88c0-2.93,1.71-4.83,4.2-4.78,2.33,0,4,2.1,4,4.77-.07,2.84-1.86,5-4.1,5C406.25,55.82,404.56,53.75,404.61,50.88Z" transform="translate(-0.35 -0.37)"/><path class="cls-3" d="M916.43,49.92c-1.24,0-2.46.36-2.4-1.75.05-1.69.7-2,2.07-1.8s3.16-.44,3.21,1.75C919.36,50.1,917.75,49.9,916.43,49.92Z" transform="translate(-0.35 -0.37)"/><path class="cls-3" d="M422.93,52.64c-.08,1.55-.37,3.1-2.13,3.16s-2.21-1.53-2.16-3,.16-3.22,2.24-3.17S422.81,51.3,422.93,52.64Z" transform="translate(-0.35 -0.37)"/><path class="cls-3" d="M941.07,52.51c0-1.39.38-2.88,2.19-2.84s2.11,1.55,2.08,3-.42,3.2-2.31,3.09S941.09,54.09,941.07,52.51Z" transform="translate(-0.35 -0.37)"/><path class="cls-3" d="M857.36,51.3h-3.83a1.68,1.68,0,0,1,1.68-1.68C856.36,49.47,857.07,50,857.36,51.3Z" transform="translate(-0.35 -0.37)"/><path class="cls-3" d="M819.49,51.35h-4C816.77,49,817.78,48.94,819.49,51.35Z" transform="translate(-0.35 -0.37)"/><path class="cls-3" d="M1066.9,53.09c.25,2-.77,2.64-2.23,2.78-.64.06-1.27-.27-1.18-.95C1063.8,52.75,1065.82,54.13,1066.9,53.09Z" transform="translate(-0.35 -0.37)"/><path class="cls-3" d="M381.61,51.26c1.66-2.28,2.68-2.27,4,0Z" transform="translate(-0.35 -0.37)"/><path class="cls-3" d="M356.57,51.35h-3.83a1.8,1.8,0,0,1,2-1.75C355.77,49.58,356.41,50.06,356.57,51.35Z" transform="translate(-0.35 -0.37)"/><path class="cls-3" d="M935.49,52.86c-.1,1.32-.09,3-2.21,3s-2.26-1.63-2.2-3.23.23-3,2.15-3C935.38,49.52,935.49,51.08,935.49,52.86Z" transform="translate(-0.35 -0.37)"/><path class="cls-3" d="M1038.05,52.88c.1-1.51.09-3.15,2.16-3.28s2.31,1.23,2.26,2.8.11,3.42-2.17,3.44C1038.43,55.87,1038.14,54.38,1038.05,52.88Z" transform="translate(-0.35 -0.37)"/><path class="cls-3" d="M312.88,52.92c-.28,1.39-.41,3.11-2.48,2.92-1.89-.16-2.25-1.79-2.14-3.29s.41-3.1,2.5-3S312.78,51.36,312.88,52.92Z" transform="translate(-0.35 -0.37)"/><path class="cls-3" d="M329.15,52.75c.4-1.36.3-3.12,2.39-3.16s2.35,1.48,2.29,3-.19,3.16-2.21,3.23S329.49,54.21,329.15,52.75Z" transform="translate(-0.35 -0.37)"/><path class="cls-2" d="M913.57,310.34c-.11,5.63-2.78,9-6.86,9s-6.81-3.47-6.9-8.74a12.66,12.66,0,0,1,.72-4.64,6.48,6.48,0,0,1,12.36,0A13.12,13.12,0,0,1,913.57,310.34Z" transform="translate(-0.35 -0.37)"/><path class="cls-2" d="M941.56,310.66c-.11,5.33-2.81,8.74-6.89,8.7s-6.78-3.51-6.86-8.77a12.69,12.69,0,0,1,.73-4.65,6.48,6.48,0,0,1,12.36.06A13.66,13.66,0,0,1,941.56,310.66Z" transform="translate(-0.35 -0.37)"/><path class="cls-2" d="M695,310.6c-.07,5.3-2.79,8.77-6.85,8.76s-6.84-3.49-7-8.71a11.74,11.74,0,0,1,1.13-5.56,6.13,6.13,0,0,1,6-3.64,6.06,6.06,0,0,1,5.64,3.81A11.51,11.51,0,0,1,695,310.6Z" transform="translate(-0.35 -0.37)"/><path class="cls-2" d="M659.4,302.11c6.72-.61,8.2,3.67,7.28,10.55-.69,5.08-4.84,7.44-9.76,6.11-.95-.26-.84-.85-.84-1.5,0-4.56-.06-9.13,0-13.69C656.15,300.63,658.54,302.82,659.4,302.11Z" transform="translate(-0.35 -0.37)"/></svg>